<?xml version="1.0" encoding="UTF-8" standalone="no"?>
<!-- Created with Inkscape (http://www.inkscape.org/) -->

<svg
   width="1000"
   height="167.90332"
   viewBox="0 0 264.58333 44.42442"
   version="1.1"
   id="svg1"
   xml:space="preserve"
   sodipodi:docname="ramalama-logo-text-only.svg"
   inkscape:version="1.4 (e7c3feb1, 2024-10-09)"
   xmlns:inkscape="http://www.inkscape.org/namespaces/inkscape"
   xmlns:sodipodi="http://sodipodi.sourceforge.net/DTD/sodipodi-0.dtd"
   xmlns="http://www.w3.org/2000/svg"
   xmlns:svg="http://www.w3.org/2000/svg"><sodipodi:namedview
     id="namedview1"
     pagecolor="#ffffff"
     bordercolor="#000000"
     borderopacity="0.25"
     inkscape:showpageshadow="2"
     inkscape:pageopacity="0.0"
     inkscape:pagecheckerboard="0"
     inkscape:deskcolor="#d1d1d1"
     inkscape:document-units="mm"
     inkscape:zoom="1.4364581"
     inkscape:cx="526.64258"
     inkscape:cy="325.80136"
     inkscape:window-width="2560"
     inkscape:window-height="1387"
     inkscape:window-x="0"
     inkscape:window-y="25"
     inkscape:window-maximized="0"
     inkscape:current-layer="svg1"><inkscape:page
       x="0"
       y="0"
       width="264.58334"
       height="44.424419"
       id="page1"
       margin="0 0 174.7403"
       bleed="0" /></sodipodi:namedview><defs
     id="defs1" /><g
     id="g54"
     transform="matrix(1.4150922,0,0,1.4150922,-327.05935,-125.33613)"><path
       style="font-weight:500;font-size:37.9182px;line-height:1.25;font-family:'Red Hat Display';-inkscape-font-specification:'Red Hat Display Medium';fill:#cf3c23;stroke-width:1.32379"
       d="m 260.11717,132.53201 h 5.29517 v -18.05652 c 1.37674,-3.1771 3.86547,-4.87156 6.98961,-4.87156 1.05905,0 2.11807,0.21181 3.12416,0.58246 v -4.76563 c -0.79428,-0.31771 -1.5356,-0.42362 -2.70054,-0.47658 -3.17711,0 -5.71878,1.48265 -7.41323,4.07728 v -3.44185 h -5.29517 z m 27.05832,0.47656 c 3.283,0 5.98354,-0.90018 8.36637,-2.80644 v 2.32988 h 5.18926 v -17.89767 c 0,-6.1424 -3.97137,-9.58425 -11.01394,-9.58425 -3.54776,0 -6.98963,0.84723 -11.06691,2.75349 l 1.95922,3.97137 c 3.33595,-1.58856 5.87764,-2.27692 8.36636,-2.27692 4.28909,0 6.56601,1.95921 6.56601,5.77173 v 2.85939 c -2.22398,-1.00608 -4.76565,-1.53559 -7.36028,-1.53559 -6.77782,0 -10.90805,3.12414 -10.90805,8.20751 0,4.87154 4.07728,8.2075 9.90196,8.2075 z m -4.8186,-8.31341 c 0,-2.70054 2.38283,-4.44794 6.24831,-4.44794 2.70052,0 4.9245,0.52951 6.93666,1.69446 v 4.55384 c -1.95921,1.7474 -4.28909,2.54167 -7.14848,2.54167 -3.60072,0 -6.03649,-1.7474 -6.03649,-4.34203 z m 24.46365,7.83685 h 5.29517 v -19.59212 c 1.48265,-2.17103 3.54776,-3.28301 6.08945,-3.28301 3.75957,0 6.19535,2.64758 6.19535,6.83077 v 16.04436 h 5.24221 v -16.94454 c 0,-0.79427 -0.10585,-1.5356 -0.2118,-2.27692 1.53559,-2.43578 3.70661,-3.65367 6.30124,-3.65367 3.81252,0 6.19535,2.64758 6.19535,6.83077 v 16.04436 h 5.29517 v -16.94454 c 0,-6.2483 -4.13023,-10.53738 -10.11378,-10.53738 -3.81252,0 -6.88371,1.5356 -9.10769,4.5009 -1.69445,-2.80645 -4.65974,-4.5009 -8.3134,-4.5009 -3.01825,0 -5.55994,1.05903 -7.5721,3.12414 v -2.59462 h -5.29517 z m 55.01681,0.47656 c 3.283,0 5.98354,-0.90018 8.36637,-2.80644 v 2.32988 h 5.18926 v -17.89767 c 0,-6.1424 -3.97137,-9.58425 -11.01394,-9.58425 -3.54777,0 -6.98962,0.84723 -11.06691,2.75349 l 1.95922,3.97137 c 3.33595,-1.58856 5.87764,-2.27692 8.36636,-2.27692 4.28909,0 6.56601,1.95921 6.56601,5.77173 v 2.85939 c -2.22397,-1.00608 -4.76565,-1.53559 -7.36028,-1.53559 -6.77782,0 -10.90805,3.12414 -10.90805,8.20751 0,4.87154 4.07728,8.2075 9.90196,8.2075 z m -4.8186,-8.31341 c 0,-2.70054 2.38283,-4.44794 6.24831,-4.44794 2.70052,0 4.9245,0.52951 6.93666,1.69446 v 4.55384 c -1.95921,1.7474 -4.28908,2.54167 -7.14848,2.54167 -3.6007,0 -6.03649,-1.7474 -6.03649,-4.34203 z"
       id="text1-8"
       aria-label="rama"
       transform="matrix(0.81356383,0,0,0.81356383,19.593859,11.737648)" /><path
       style="font-weight:500;font-size:37.9182px;line-height:1.25;font-family:'Red Hat Display';-inkscape-font-specification:'Red Hat Display Medium';stroke-width:1.32379"
       d="m 381.42026,132.53201 h 5.29517 V 94.459764 l -5.29517,1.006073 z m 20.06872,0.47656 c 3.28299,0 5.98353,-0.90018 8.36635,-2.80644 v 2.32988 h 5.18928 v -17.89767 c 0,-6.1424 -3.97139,-9.58425 -11.01396,-9.58425 -3.54776,0 -6.98962,0.84723 -11.06689,2.75349 l 1.9592,3.97137 c 3.33596,-1.58856 5.87764,-2.27692 8.36637,-2.27692 4.28908,0 6.566,1.95921 6.566,5.77173 v 2.85939 c -2.22396,-1.00608 -4.76565,-1.53559 -7.36028,-1.53559 -6.77782,0 -10.90805,3.12414 -10.90805,8.20751 0,4.87154 4.07728,8.2075 9.90198,8.2075 z m -4.81861,-8.31341 c 0,-2.70054 2.38282,-4.44794 6.2483,-4.44794 2.70054,0 4.9245,0.52951 6.93666,1.69446 v 4.55384 c -1.9592,1.7474 -4.28908,2.54167 -7.14848,2.54167 -3.6007,0 -6.03648,-1.7474 -6.03648,-4.34203 z m 24.46365,7.83685 h 5.29516 v -19.59212 c 1.48265,-2.17103 3.54777,-3.28301 6.08946,-3.28301 3.75956,0 6.19534,2.64758 6.19534,6.83077 v 16.04436 h 5.24222 v -16.94454 c 0,-0.79427 -0.10586,-1.5356 -0.21181,-2.27692 1.53559,-2.43578 3.70662,-3.65367 6.30124,-3.65367 3.81252,0 6.19535,2.64758 6.19535,6.83077 v 16.04436 h 5.29517 v -16.94454 c 0,-6.2483 -4.13023,-10.53738 -10.11376,-10.53738 -3.81254,0 -6.88373,1.5356 -9.1077,4.5009 -1.69445,-2.80645 -4.65975,-4.5009 -8.31341,-4.5009 -3.01825,0 -5.55992,1.05903 -7.5721,3.12414 v -2.59462 h -5.29516 z m 55.0168,0.47656 c 3.28301,0 5.98355,-0.90018 8.36637,-2.80644 v 2.32988 h 5.18926 v -17.89767 c 0,-6.1424 -3.97137,-9.58425 -11.01394,-9.58425 -3.54776,0 -6.98962,0.84723 -11.06691,2.75349 l 1.95922,3.97137 c 3.33595,-1.58856 5.87764,-2.27692 8.36636,-2.27692 4.28909,0 6.56601,1.95921 6.56601,5.77173 v 2.85939 c -2.22396,-1.00608 -4.76565,-1.53559 -7.36028,-1.53559 -6.77782,0 -10.90805,3.12414 -10.90805,8.20751 0,4.87154 4.07728,8.2075 9.90196,8.2075 z m -4.81859,-8.31341 c 0,-2.70054 2.38282,-4.44794 6.2483,-4.44794 2.70052,0 4.9245,0.52951 6.93666,1.69446 v 4.55384 c -1.95921,1.7474 -4.28908,2.54167 -7.14848,2.54167 -3.6007,0 -6.03648,-1.7474 -6.03648,-4.34203 z"
       id="text5-0"
       aria-label="lama"
       transform="matrix(0.81356383,0,0,0.81356383,19.593859,11.737648)" /></g></svg>
