<?xml version="1.0" encoding="UTF-8" standalone="no"?>
<!-- Created with Inkscape (http://www.inkscape.org/) -->

<svg
   width="1000"
   height="1000"
   viewBox="0 0 200 200"
   version="1.1"
   id="svg1"
   xml:space="preserve"
   sodipodi:docname="ramalama-about-graphic-3.svg"
   inkscape:version="1.4 (e7c3feb1, 2024-10-09)"
   xmlns:inkscape="http://www.inkscape.org/namespaces/inkscape"
   xmlns:sodipodi="http://sodipodi.sourceforge.net/DTD/sodipodi-0.dtd"
   xmlns="http://www.w3.org/2000/svg"
   xmlns:svg="http://www.w3.org/2000/svg"><sodipodi:namedview
     id="namedview1"
     pagecolor="#ffffff"
     bordercolor="#000000"
     borderopacity="0.25"
     inkscape:showpageshadow="2"
     inkscape:pageopacity="0.0"
     inkscape:pagecheckerboard="0"
     inkscape:deskcolor="#d1d1d1"
     inkscape:zoom="1.1677623"
     inkscape:cx="461.56655"
     inkscape:cy="693.20616"
     inkscape:window-width="1648"
     inkscape:window-height="860"
     inkscape:window-x="0"
     inkscape:window-y="44"
     inkscape:window-maximized="0"
     inkscape:current-layer="g124" /><defs
     id="defs1"><marker
       style="overflow:visible"
       id="marker120"
       refX="0"
       refY="0"
       orient="auto-start-reverse"
       markerWidth="0.80000001"
       markerHeight="0.80000001"
       viewBox="0 0 1 1"
       preserveAspectRatio="xMidYMid"><path
         style="fill:none;stroke:context-stroke;stroke-width:1;stroke-linecap:round"
         d="M 3,-3 0,0 3,3"
         transform="rotate(180,0.125,0)"
         id="path120" /></marker><marker
       style="overflow:visible"
       id="ArrowWideRounded"
       refX="0"
       refY="0"
       orient="auto-start-reverse"
       markerWidth="0.80000001"
       markerHeight="0.80000001"
       viewBox="0 0 1 1"
       preserveAspectRatio="xMidYMid"><path
         style="fill:none;stroke:context-stroke;stroke-width:1;stroke-linecap:round"
         d="M 3,-3 0,0 3,3"
         transform="rotate(180,0.125,0)"
         id="path119" /></marker></defs><g
     id="layer1"
     transform="translate(-420)"><g
       id="g124"
       transform="matrix(1.0627834,0,0,1.0627834,-28.887784,-1.654491)"><g
         id="g6"
         transform="matrix(0.19941186,0,0,0.19941186,444.59014,24.355487)"><path
           d="m 230.721,172.7 c -0.538,-2.027 -1.408,-3.95 -2.575,-5.692 0.25,-0.917 0.441,-1.849 0.568,-2.791 0.829,-5.976 -1.243,-11.447 -5.147,-15.68 -2.115,-2.312 -4.382,-3.839 -6.783,-4.776 1.576,-6.743 2.373,-13.644 2.377,-20.568 0,-3.163 -0.179,-6.261 -0.479,-9.313 -0.156,-1.524 -0.345,-3.044 -0.567,-4.56 -0.687,-4.473 -1.707,-8.889 -3.051,-13.21 -0.881,-2.8393 -1.9,-5.634 -3.054,-8.374 -1.729,-4.0578 -3.748,-7.986 -6.041,-11.754 -1.504,-2.507 -3.142,-4.9312 -4.907,-7.262 -0.865,-1.177 -1.766,-2.3262 -2.704,-3.446 -2.778,-3.376 -5.797,-6.5463 -9.033,-9.486 -1.075,-0.9883 -2.18,-1.9427 -3.315,-2.862 -1.117,-0.9317 -2.259,-1.8333 -3.424,-2.704 -2.345,-1.7454 -4.768,-3.3828 -7.262,-4.907 -13.781,-8.37 -29.942,-13.17 -47.215,-13.17 -50.292,0 -91.052,40.762 -91.052,91.051 -0.002,7.012 0.81,14 2.42,20.824 -2.16,0.938 -4.23,2.4 -6.15,4.515 -3.903,4.231 -5.976,9.682 -5.147,15.658 0.126,0.949 0.315,1.889 0.567,2.813 -1.1659,1.743 -2.0353,3.667 -2.573,5.694 -1.2,4.561 -0.805,8.674 0.72,12.278 -1.658,4.71 -1.244,9.726 0.915,14.087 1.57,3.185 3.817,5.649 6.587,7.851 3.293,2.618 7.415,4.842 12.387,6.976 5.932,2.53 13.173,4.907 16.466,5.779 8.506,2.202 16.662,3.598 24.928,3.666 11.777,0.109 21.919,-2.66 29.18,-9.747 3.567,0.437 7.158,0.656 10.752,0.654 3.797,-0.008 7.59,-0.247 11.358,-0.715 7.244,7.132 17.425,9.926 29.245,9.814 8.265,-0.066 16.421,-1.462 24.905,-3.667 3.315,-0.872 10.553,-3.249 16.488,-5.779 4.972,-2.137 9.094,-4.361 12.409,-6.975 2.749,-2.203 4.994,-4.666 6.565,-7.851 2.181,-4.362 2.573,-9.378 0.938,-14.088 1.51,-3.604 1.903,-7.726 0.704,-12.283 z m -8.44,11.973 c 1.671,3.171 1.778,6.754 0.304,10.091 -2.236,5.057 -7.79,9.041 -18.577,13.318 -6.708,2.66 -12.85,4.361 -12.904,4.376 -8.872,2.301 -16.896,3.47 -23.842,3.47 -11.502,0 -20.061,-3.174 -25.489,-9.442 -9.179,1.564 -18.551,1.617 -27.747,0.158 -5.435,6.164 -13.945,9.284 -25.35,9.284 -6.947,0 -14.97,-1.169 -23.843,-3.47 -0.054,-0.015 -6.194,-1.716 -12.904,-4.376 -10.786,-4.277 -16.342,-8.258 -18.577,-13.318 -1.474,-3.337 -1.367,-6.92 0.304,-10.091 0.154,-0.295 0.32,-0.582 0.497,-0.86 -1.0014,-1.504 -1.6731,-3.203 -1.971,-4.986 -0.2978,-1.782 -0.215,-3.607 0.243,-5.355 0.664,-2.523 2.035,-4.621 3.897,-6.128 -0.897,-1.474 -1.4855,-3.114 -1.73,-4.822 -0.536,-3.714 0.697,-7.422 3.47,-10.446 2.16,-2.353 5.213,-3.648 8.593,-3.648 h 0.09 c -2.5485,-8.169 -3.8406,-16.678 -3.832,-25.235 0,-46.671 37.836,-84.51 84.514,-84.51 46.677,0 84.513,37.835 84.513,84.51 0.007,8.58 -1.294,17.111 -3.859,25.299 0.408,-0.04 0.808,-0.06 1.201,-0.061 3.38,0 6.434,1.295 8.592,3.648 2.773,3.021 4.007,6.732 3.47,10.446 -0.244,1.708 -0.833,3.348 -1.729,4.822 1.862,1.507 3.234,3.605 3.897,6.128 0.458,1.748 0.541,3.573 0.243,5.356 -0.297,1.782 -0.969,3.481 -1.971,4.985 0.177,0.275 0.345,0.562 0.497,0.857 z"
           fill="#ffffff"
           id="path1-3" /><path
           d="m 221.784,183.816 c 1.002,-1.504 1.674,-3.203 1.972,-4.985 0.297,-1.783 0.214,-3.608 -0.244,-5.356 -0.664,-2.523 -2.036,-4.621 -3.897,-6.128 0.897,-1.474 1.485,-3.114 1.729,-4.822 0.537,-3.714 -0.696,-7.422 -3.47,-10.446 -2.158,-2.353 -5.212,-3.648 -8.592,-3.648 -0.393,0 -0.793,0.021 -1.201,0.061 2.562,-8.188 3.861,-16.718 3.852,-25.297 0,-46.6719 -37.836,-84.5099 -84.509,-84.5099 -46.674,0 -84.5141,37.834 -84.5141,84.5099 -0.0084,8.557 1.2837,17.066 3.8321,25.235 h -0.0901 c -3.38,0 -6.4329,1.294 -8.5919,3.647 -2.773,3.021 -4.0071,6.733 -3.4701,10.446 0.2447,1.708 0.8332,3.349 1.73,4.823 -1.862,1.506 -3.2339,3.604 -3.8979,6.127 -0.4578,1.749 -0.5403,3.574 -0.2421,5.357 0.2982,1.782 0.9702,3.482 1.972,4.986 -0.178,0.278 -0.342,0.565 -0.497,0.86 -1.67,3.171 -1.7779,6.754 -0.3029,10.091 2.236,5.057 7.7899,9.041 18.5769,13.318 6.707,2.66 12.8501,4.361 12.9041,4.376 8.872,2.301 16.896,3.47 23.842,3.47 11.406,0 19.916,-3.12 25.351,-9.284 9.196,1.459 18.568,1.405 27.747,-0.158 5.428,6.268 13.987,9.442 25.489,9.442 6.946,0 14.97,-1.169 23.841,-3.47 0.055,-0.015 6.195,-1.716 12.905,-4.376 10.787,-4.277 16.342,-8.261 18.577,-13.318 1.474,-3.337 1.367,-6.92 -0.304,-10.091 -0.152,-0.297 -0.32,-0.585 -0.497,-0.86 z m -111.647,13.181 c -0.468,0.818 -0.969,1.617 -1.502,2.394 -1.405,2.057 -3.253,3.629 -5.398,4.797 -4.1001,2.236 -9.29,3.017 -14.562,3.017 -8.329,0 -16.867,-1.949 -21.652,-3.19 -0.236,-0.061 -29.334,-8.28 -25.65,-15.276 0.62,-1.177 1.6399,-1.647 2.9249,-1.647 5.187,0 14.632,7.724 18.691,7.724 0.907,0 1.547,-0.386 1.808,-1.328 1.73,-6.204 -26.293,-8.812 -23.933,-17.796 0.416,-1.59 1.5461,-2.236 3.1341,-2.236 6.858,-10e-4 22.25,12.06 25.469,12.06 0.247,0 0.4239,-0.073 0.5199,-0.225 0.014,-0.023 0.0281,-0.045 0.0411,-0.069 1.511,-2.495 0.6439,-4.309 -9.7071,-10.649 l -0.994,-0.605 c -11.391,-6.894 -19.386,-11.043 -14.839,-15.993 0.523,-0.571 1.265,-0.824 2.166,-0.824 1.068,0 2.361,0.357 3.785,0.957 6.016,2.537 14.3541,9.456 17.8371,12.473 0.5479,0.476 1.0923,0.957 1.6329,1.441 0,0 4.4101,4.586 7.0761,4.586 0.614,0 1.1349,-0.242 1.4879,-0.84 1.8911,-3.188 -17.563,-17.93 -18.66,-24.013 -0.744,-4.121 0.522,-6.209 2.862,-6.209 1.113,0 2.471,0.474 3.97,1.425 4.65,2.951 13.628,18.379 16.915,24.381 1.102,2.011 2.983,2.861 4.678,2.861 3.363,0 5.992,-3.343 0.308,-7.591 -8.543,-6.392 -5.5449,-16.84 -1.4679,-17.483 0.174,-0.028 0.3499,-0.042 0.5249,-0.042 3.708,0 5.343,6.389 5.343,6.389 0,0 4.794,12.038 13.0291,20.267 7.472,7.469 8.516,13.598 4.162,21.244 z m 26.629,1.41 -0.427,0.051 -0.728,0.083 c -0.383,0.04 -0.767,0.078 -1.152,0.113 l -0.375,0.034 -0.343,0.029 -0.486,0.039 -0.537,0.039 -0.536,0.035 -0.119,0.008 c -0.14,0.008 -0.28,0.017 -0.422,0.024 l -0.179,0.01 c -0.166,0.009 -0.332,0.017 -0.5,0.024 l -0.581,0.025 -0.527,0.018 -0.352,0.01 h -0.179 c -0.11,0 -0.219,0.006 -0.329,0.007 h -0.174 c -0.11,0 -0.219,0 -0.329,0.005 l -0.448,0.006 h -0.625 c -0.491,0 -0.981,-0.005 -1.469,-0.015 l -0.396,-0.009 c -0.113,0 -0.226,-0.005 -0.337,-0.009 l -0.42,-0.012 -0.521,-0.02 -0.47,-0.021 -0.121,-0.005 -0.447,-0.023 c -0.125,-0.007 -0.248,-0.013 -0.372,-0.022 l -0.289,-0.017 c -0.363,-0.023 -0.726,-0.048 -1.089,-0.076 l -0.38,-0.031 c -0.16,-0.012 -0.32,-0.027 -0.479,-0.041 -0.187,-0.016 -0.374,-0.034 -0.561,-0.052 -0.313,-0.029 -0.626,-0.061 -0.939,-0.095 h -0.015 c 4.57,-10.195 2.259,-19.717 -6.976,-28.944 -6.057,-6.049 -10.086,-14.981 -10.922,-16.942 -1.6921,-5.805 -6.17,-12.258 -13.607,-12.258 -0.629,0 -1.257,0.05 -1.878,0.148 -3.258,0.513 -6.106,2.388 -8.138,5.21 -2.196,-2.731 -4.33,-4.902 -6.26,-6.128 -2.91,-1.845 -5.8141,-2.781 -8.6431,-2.781 -3.531,0 -6.687,1.45 -8.887,4.08 l -0.056,0.067 c -0.042,-0.173 -0.082,-0.346 -0.123,-0.52 l -0.005,-0.023 c -0.4187,-1.79 -0.7702,-3.595 -1.054,-5.412 0,-0.012 0,-0.024 -0.006,-0.036 -0.022,-0.137 -0.042,-0.275 -0.063,-0.412 -0.0615,-0.406 -0.1192,-0.813 -0.173,-1.22 -0.024,-0.185 -0.05,-0.37 -0.073,-0.555 l -0.068,-0.555 c -0.022,-0.185 -0.04,-0.353 -0.06,-0.529 l -0.0059,-0.044 c -0.0799,-0.72 -0.1499,-1.44 -0.2101,-2.162 l -0.022,-0.277 -0.035,-0.472 c -0.01,-0.129 -0.02,-0.259 -0.027,-0.389 0,-0.031 -0.005,-0.061 -0.006,-0.09 -0.0254,-0.362 -0.0471,-0.725 -0.065,-1.088 -0.01,-0.189 -0.02,-0.377 -0.028,-0.567 l -0.02,-0.496 -0.005,-0.15 -0.016,-0.457 -0.01,-0.389 c 0,-0.155 -0.008,-0.31 -0.01,-0.465 -0.003,-0.155 -0.007,-0.325 -0.008,-0.489 -0.002,-0.164 0,-0.326 -0.005,-0.489 -0.004,-0.164 0,-0.327 0,-0.49 0,-41.8529 33.931,-75.7839 75.7881,-75.7839 41.856,0 75.786,33.93 75.786,75.7839 v 0.979 c 0,0.163 -0.005,0.327 -0.008,0.489 0,0.135 -0.006,0.268 -0.01,0.405 0,0.12 -0.005,0.241 -0.009,0.357 0,0.153 -0.009,0.306 -0.014,0.459 v 0.012 l -0.021,0.531 c -0.007,0.155 -0.013,0.311 -0.021,0.466 l -0.005,0.11 -0.027,0.496 c -0.059,1.063 -0.14,2.124 -0.241,3.184 v 0.013 c -0.017,0.174 -0.034,0.348 -0.053,0.522 l -0.045,0.411 -0.089,0.804 -0.051,0.407 -0.063,0.479 c -0.023,0.174 -0.046,0.349 -0.072,0.522 -0.026,0.195 -0.055,0.389 -0.084,0.583 l -0.069,0.459 -0.082,0.52 c -0.028,0.173 -0.058,0.345 -0.09,0.517 -0.033,0.173 -0.059,0.345 -0.089,0.517 -0.06,0.344 -0.123,0.688 -0.189,1.031 -0.101,0.513 -0.204,1.025 -0.31,1.537 l -0.11,0.507 c -0.036,0.169 -0.075,0.339 -0.113,0.508 -2.133,-2.073 -4.958,-3.202 -8.073,-3.202 -2.827,0 -5.734,0.935 -8.643,2.78 -1.93,1.226 -4.063,3.398 -6.26,6.128 -2.035,-2.822 -4.883,-4.697 -8.139,-5.21 -0.621,-0.098 -1.249,-0.148 -1.878,-0.148 -7.439,0 -11.914,6.453 -13.607,12.258 -0.84,1.961 -4.87,10.893 -10.932,16.951 -9.229,9.198 -11.557,18.677 -7.059,28.83 z m 78.241,-20.409 -0.03,0.089 c -0.076,0.201 -0.164,0.397 -0.263,0.587 -0.075,0.14 -0.156,0.276 -0.244,0.408 -0.167,0.249 -0.35,0.487 -0.549,0.711 -0.046,0.052 -0.09,0.104 -0.142,0.155 -0.072,0.077 -0.145,0.153 -0.22,0.227 -1.346,1.334 -3.398,2.504 -5.718,3.577 -0.263,0.119 -0.53,0.238 -0.799,0.358 l -0.268,0.119 c -0.179,0.079 -0.358,0.157 -0.546,0.234 -0.179,0.078 -0.365,0.156 -0.551,0.232 l -0.558,0.23 c -1.305,0.537 -2.642,1.049 -3.946,1.554 l -0.558,0.217 -0.551,0.216 c -0.367,0.143 -0.729,0.286 -1.085,0.429 l -0.531,0.214 -0.522,0.213 -0.256,0.108 c -0.171,0.071 -0.338,0.142 -0.505,0.213 -3.837,1.647 -6.598,3.322 -6.018,5.4 0.016,0.059 0.034,0.115 0.054,0.17 0.052,0.154 0.123,0.299 0.212,0.436 0.052,0.081 0.112,0.158 0.179,0.228 0.682,0.709 1.923,0.597 3.488,0.034 0.22,-0.081 0.439,-0.165 0.656,-0.253 l 0.136,-0.056 c 0.358,-0.152 0.737,-0.322 1.124,-0.506 0.097,-0.046 0.195,-0.09 0.293,-0.141 1.914,-0.936 4.083,-2.196 6.235,-3.343 0.861,-0.465 1.734,-0.906 2.618,-1.325 2.038,-0.959 3.954,-1.639 5.494,-1.639 0.723,0 1.361,0.148 1.893,0.488 l 0.089,0.059 c 0.334,0.235 0.614,0.537 0.823,0.887 0.041,0.067 0.081,0.138 0.12,0.211 0.761,1.445 0.124,2.941 -1.367,4.408 -1.431,1.409 -3.657,2.79 -6.187,4.068 -0.188,0.095 -0.376,0.19 -0.567,0.283 -7.53,3.698 -17.391,6.483 -17.528,6.518 -2.628,0.681 -6.386,1.575 -10.62,2.244 l -0.626,0.098 -0.103,0.015 c -0.474,0.072 -0.949,0.139 -1.425,0.201 -0.483,0.065 -0.971,0.124 -1.462,0.179 l -0.09,0.01 c -1.78,0.205 -3.567,0.341 -5.358,0.406 h -0.026 c -0.648,0.023 -1.295,0.035 -1.943,0.035 h -0.747 c -0.988,-0.013 -1.974,-0.058 -2.959,-0.134 -0.023,0 -0.048,0 -0.071,-0.006 -0.353,-0.027 -0.705,-0.06 -1.057,-0.099 -0.365,-0.039 -0.729,-0.083 -1.092,-0.132 -0.239,-0.032 -0.477,-0.068 -0.715,-0.107 -0.242,-0.039 -0.484,-0.079 -0.725,-0.121 l -0.329,-0.062 -0.025,-0.005 c -0.347,-0.066 -0.692,-0.139 -1.036,-0.219 -0.2,-0.045 -0.399,-0.089 -0.596,-0.143 l -0.119,-0.03 c -0.098,-0.024 -0.193,-0.05 -0.29,-0.076 l -0.053,-0.014 -0.308,-0.09 c -0.112,-0.031 -0.224,-0.065 -0.336,-0.098 l -0.039,-0.011 -0.291,-0.089 c -0.11,-0.034 -0.22,-0.07 -0.329,-0.106 l -0.268,-0.089 -0.197,-0.069 c -0.19,-0.067 -0.379,-0.136 -0.566,-0.208 l -0.178,-0.07 -0.147,-0.058 c -0.284,-0.114 -0.566,-0.233 -0.845,-0.358 l -0.185,-0.09 -0.031,-0.014 c -0.066,-0.031 -0.131,-0.062 -0.197,-0.089 -0.129,-0.062 -0.257,-0.126 -0.384,-0.191 l -0.039,-0.019 -0.184,-0.097 c -0.327,-0.171 -0.647,-0.353 -0.961,-0.546 l -0.172,-0.106 c -0.086,-0.053 -0.172,-0.108 -0.256,-0.164 l -0.224,-0.148 -0.241,-0.166 -0.144,-0.103 c -0.152,-0.108 -0.301,-0.22 -0.447,-0.335 l -0.233,-0.179 c -0.093,-0.075 -0.185,-0.151 -0.276,-0.228 -0.077,-0.063 -0.152,-0.129 -0.227,-0.195 l -0.006,-0.005 c -0.081,-0.071 -0.16,-0.142 -0.239,-0.215 -0.078,-0.071 -0.156,-0.143 -0.232,-0.216 l -0.009,-0.009 c -0.08,-0.076 -0.158,-0.153 -0.235,-0.232 -0.077,-0.078 -0.156,-0.156 -0.231,-0.236 -0.075,-0.079 -0.152,-0.16 -0.226,-0.243 -0.074,-0.082 -0.142,-0.157 -0.212,-0.238 l -0.023,-0.027 c -0.068,-0.078 -0.135,-0.157 -0.201,-0.238 -0.143,-0.171 -0.282,-0.346 -0.416,-0.525 -0.135,-0.18 -0.267,-0.364 -0.396,-0.551 l -0.123,-0.184 c -0.164,-0.24 -0.324,-0.482 -0.479,-0.728 -0.116,-0.177 -0.229,-0.355 -0.339,-0.536 -0.071,-0.113 -0.139,-0.227 -0.207,-0.339 l -0.028,-0.046 c -0.065,-0.11 -0.129,-0.218 -0.191,-0.327 -0.036,-0.059 -0.07,-0.118 -0.102,-0.179 -0.033,-0.062 -0.071,-0.125 -0.106,-0.188 l -0.057,-0.099 -0.035,-0.064 c -0.067,-0.12 -0.133,-0.241 -0.197,-0.363 -0.03,-0.054 -0.059,-0.108 -0.09,-0.16 l -0.089,-0.173 -0.09,-0.171 c -0.225,-0.45 -0.438,-0.906 -0.638,-1.368 l -0.071,-0.169 c -0.046,-0.113 -0.089,-0.225 -0.135,-0.336 -0.022,-0.054 -0.044,-0.107 -0.063,-0.161 -0.107,-0.277 -0.207,-0.557 -0.299,-0.839 -0.033,-0.101 -0.065,-0.2 -0.095,-0.3 -0.072,-0.227 -0.137,-0.456 -0.195,-0.687 -0.071,-0.269 -0.134,-0.54 -0.187,-0.813 -0.011,-0.055 -0.022,-0.11 -0.031,-0.163 -0.052,-0.267 -0.094,-0.536 -0.127,-0.806 -0.008,-0.053 -0.014,-0.106 -0.02,-0.159 l -0.017,-0.162 c -0.022,-0.212 -0.039,-0.425 -0.049,-0.638 0,-0.054 -0.005,-0.108 -0.007,-0.16 -0.005,-0.106 -0.007,-0.212 -0.008,-0.318 -0.056,-4.273 2.106,-8.381 6.729,-13.002 8.235,-8.227 13.029,-20.266 13.029,-20.266 0,0 0.129,-0.505 0.397,-1.232 0.037,-0.101 0.076,-0.205 0.12,-0.314 0.156,-0.407 0.332,-0.807 0.527,-1.197 l 0.039,-0.075 c 0.166,-0.332 0.348,-0.656 0.544,-0.971 0.046,-0.073 0.09,-0.145 0.141,-0.218 0.147,-0.217 0.302,-0.429 0.465,-0.634 0.089,-0.111 0.186,-0.221 0.283,-0.328 0.039,-0.042 0.077,-0.084 0.118,-0.124 0.477,-0.493 1.022,-0.895 1.639,-1.109 l 0.078,-0.026 c 0.052,-0.017 0.104,-0.033 0.157,-0.048 0.061,-0.016 0.122,-0.03 0.185,-0.043 l 0.029,-0.006 c 0.13,-0.026 0.262,-0.043 0.395,-0.052 h 0.011 c 0.069,0 0.139,-0.007 0.21,-0.007 0.089,0 0.172,0 0.259,0.009 0.09,0.008 0.179,0.018 0.269,0.032 0.742,0.118 1.448,0.56 2.056,1.242 0.231,0.26 0.439,0.54 0.621,0.836 0.12,0.192 0.233,0.395 0.34,0.609 0.043,0.089 0.084,0.171 0.124,0.259 0.104,0.226 0.198,0.456 0.28,0.691 0.195,0.55 0.342,1.116 0.439,1.692 0.084,0.505 0.134,1.015 0.15,1.526 0.008,0.273 0.008,0.55 0,0.829 -0.054,1.298 -0.32,2.579 -0.787,3.792 -0.042,0.111 -0.089,0.223 -0.134,0.335 -0.092,0.226 -0.193,0.448 -0.302,0.665 -0.081,0.165 -0.166,0.331 -0.258,0.496 -0.06,0.11 -0.123,0.22 -0.186,0.33 -0.161,0.274 -0.335,0.546 -0.522,0.817 l -0.113,0.162 c -0.442,0.616 -0.934,1.194 -1.472,1.728 -0.53,0.531 -1.098,1.022 -1.699,1.47 -0.602,0.446 -1.167,0.94 -1.689,1.477 -1.503,1.577 -1.853,2.969 -1.515,4.024 0.054,0.166 0.125,0.327 0.211,0.479 0.101,0.174 0.221,0.334 0.357,0.48 l 0.053,0.055 0.054,0.054 c 0.054,0.052 0.111,0.103 0.172,0.153 l 0.06,0.048 c 0.145,0.112 0.299,0.212 0.46,0.3 0.047,0.025 0.089,0.05 0.142,0.074 0.174,0.085 0.353,0.158 0.537,0.217 0.051,0.017 0.102,0.032 0.154,0.048 l 0.065,0.017 0.09,0.024 0.077,0.019 0.084,0.018 0.083,0.017 0.079,0.013 c 0.058,0.01 0.118,0.02 0.178,0.027 l 0.057,0.009 0.104,0.01 0.064,0.007 0.105,0.007 h 0.062 l 0.11,0.006 h 0.346 l 0.099,-0.006 0.114,-0.007 0.139,-0.013 0.13,-0.015 c 0.03,0 0.06,-0.008 0.09,-0.014 0.4,-0.058 0.792,-0.164 1.167,-0.316 l 0.159,-0.067 c 0.089,-0.039 0.179,-0.08 0.261,-0.124 0.176,-0.088 0.347,-0.188 0.511,-0.297 0.229,-0.15 0.445,-0.318 0.647,-0.503 0.048,-0.043 0.095,-0.089 0.141,-0.133 0.023,-0.022 0.045,-0.043 0.067,-0.067 0.044,-0.045 0.089,-0.089 0.133,-0.138 0.32,-0.352 0.597,-0.74 0.825,-1.157 1.957,-3.559 4.008,-7.065 6.151,-10.514 l 0.294,-0.471 0.297,-0.471 c 0.148,-0.239 0.298,-0.474 0.447,-0.708 l 0.15,-0.234 c 0.498,-0.78 1.004,-1.555 1.519,-2.324 l 0.305,-0.456 c 0.612,-0.907 1.222,-1.789 1.827,-2.627 l 0.301,-0.415 c 0.658,-0.907 1.343,-1.795 2.054,-2.661 l 0.282,-0.338 c 0.047,-0.056 0.09,-0.112 0.141,-0.166 0.093,-0.11 0.186,-0.217 0.277,-0.321 0.046,-0.053 0.089,-0.105 0.138,-0.157 l 0.268,-0.302 0.134,-0.147 c 0.135,-0.145 0.267,-0.284 0.397,-0.417 0.09,-0.09 0.173,-0.179 0.259,-0.263 0.507,-0.518 1.066,-0.983 1.669,-1.386 l 0.14,-0.09 c 0.134,-0.09 0.273,-0.174 0.415,-0.25 2.364,-1.342 4.321,-1.441 5.448,-0.314 0.682,0.682 1.06,1.813 1.039,3.387 0,0.069 0,0.139 -0.005,0.211 v 0.077 c 0,0.072 -0.006,0.144 -0.012,0.217 0,0.09 -0.01,0.179 -0.019,0.269 -0.009,0.089 -0.014,0.157 -0.023,0.237 0,0.022 -0.004,0.045 -0.008,0.069 -0.006,0.069 -0.015,0.14 -0.025,0.211 0,0.021 0,0.043 -0.008,0.065 -0.011,0.095 -0.025,0.189 -0.041,0.283 -0.011,0.09 -0.026,0.174 -0.042,0.262 l -0.026,0.149 c -0.026,0.142 -0.059,0.282 -0.1,0.42 -0.078,0.259 -0.172,0.512 -0.283,0.758 -0.155,0.338 -0.326,0.667 -0.514,0.987 -0.104,0.178 -0.211,0.353 -0.322,0.526 -0.114,0.179 -0.234,0.36 -0.358,0.543 -0.316,0.452 -0.644,0.895 -0.985,1.328 l -0.156,0.197 c -0.556,0.693 -1.13,1.372 -1.722,2.035 l -0.187,0.21 c -0.252,0.281 -0.508,0.564 -0.77,0.848 l -0.197,0.214 c -0.131,0.143 -0.268,0.286 -0.4,0.43 -0.131,0.143 -0.268,0.288 -0.406,0.433 l -0.411,0.433 -0.417,0.436 -0.42,0.436 c -0.282,0.292 -0.565,0.584 -0.85,0.876 -4.055,4.159 -8.327,8.304 -9.773,10.888 -0.097,0.168 -0.184,0.342 -0.262,0.519 -0.206,0.47 -0.292,0.872 -0.233,1.197 0.019,0.107 0.056,0.209 0.111,0.303 0.081,0.141 0.18,0.271 0.295,0.387 0.053,0.052 0.109,0.1 0.168,0.144 0.298,0.212 0.657,0.321 1.023,0.311 h 0.114 l 0.117,-0.009 0.117,-0.013 0.097,-0.014 c 0.013,-0.002 0.027,-0.004 0.04,-0.008 l 0.089,-0.017 0.023,-0.005 0.099,-0.021 0.035,-0.009 c 0.035,-0.009 0.069,-0.018 0.104,-0.028 0.035,-0.01 0.083,-0.023 0.125,-0.037 0.176,-0.053 0.348,-0.116 0.517,-0.188 0.089,-0.036 0.176,-0.075 0.262,-0.117 0.045,-0.02 0.09,-0.041 0.132,-0.063 l 0.134,-0.066 c 0.32,-0.166 0.632,-0.347 0.936,-0.541 l 0.133,-0.09 c 0.045,-0.028 0.09,-0.057 0.133,-0.089 l 0.133,-0.089 0.071,-0.049 0.192,-0.135 c 0.179,-0.123 0.346,-0.25 0.515,-0.379 l 0.015,-0.012 0.269,-0.208 c 0.367,-0.29 0.715,-0.582 1.031,-0.857 l 0.21,-0.184 0.019,-0.018 0.11,-0.097 c 0.258,-0.232 0.488,-0.448 0.679,-0.626 l 0.079,-0.077 c 0.069,-0.065 0.132,-0.126 0.189,-0.178 l 0.112,-0.111 0.04,-0.039 0.011,-0.011 0.117,-0.117 0.074,-0.077 0.009,-0.007 0.035,-0.032 0.044,-0.04 0.014,-0.013 0.037,-0.034 0.204,-0.179 0.114,-0.102 c 0.061,-0.053 0.12,-0.107 0.179,-0.162 l 0.136,-0.121 c 0.025,-0.02 0.049,-0.042 0.074,-0.064 l 0.143,-0.125 0.21,-0.185 0.112,-0.097 c 0.435,-0.378 0.964,-0.835 1.572,-1.35 l 0.249,-0.211 0.411,-0.345 0.421,-0.351 c 0.55,-0.457 1.142,-0.942 1.768,-1.445 l 0.411,-0.33 c 0.35,-0.279 0.709,-0.563 1.073,-0.849 0.147,-0.115 0.296,-0.23 0.448,-0.344 0.372,-0.289 0.746,-0.576 1.123,-0.859 0.858,-0.648 1.743,-1.297 2.639,-1.929 l 0.384,-0.268 c 0.269,-0.185 0.537,-0.371 0.805,-0.552 l 0.243,-0.164 c 0.479,-0.325 0.965,-0.642 1.455,-0.951 l 0.243,-0.153 0.241,-0.15 c 0.242,-0.15 0.482,-0.297 0.721,-0.44 l 0.239,-0.143 0.478,-0.278 0.469,-0.269 0.095,-0.052 0.371,-0.204 c 0.155,-0.084 0.309,-0.165 0.463,-0.244 l 0.229,-0.118 0.223,-0.112 c 0.078,-0.037 0.155,-0.076 0.231,-0.113 0.502,-0.248 1.014,-0.476 1.534,-0.684 0.141,-0.06 0.281,-0.114 0.42,-0.161 l 0.41,-0.144 c 0.123,-0.041 0.243,-0.08 0.358,-0.115 l 0.04,-0.012 c 0.062,-0.02 0.124,-0.038 0.185,-0.054 l 0.018,-0.005 c 0.128,-0.037 0.255,-0.069 0.38,-0.099 h 0.009 c 0.354,-0.085 0.714,-0.146 1.077,-0.183 0.167,-0.017 0.334,-0.026 0.502,-0.025 h 0.084 c 0.112,0 0.22,0.007 0.327,0.018 0.049,0 0.098,0.01 0.146,0.016 h 0.02 c 0.048,0.006 0.096,0.013 0.144,0.024 0.047,0.009 0.095,0.017 0.141,0.028 h 0.015 c 0.047,0.01 0.089,0.022 0.138,0.036 0.254,0.071 0.496,0.181 0.718,0.325 0.109,0.071 0.211,0.151 0.305,0.24 l 0.027,0.026 c 0.018,0.016 0.035,0.033 0.051,0.05 l 0.049,0.053 c 0.402,0.421 0.734,0.904 0.984,1.43 l 0.038,0.09 c 0.085,0.2 0.152,0.407 0.2,0.618 0.142,0.646 0.087,1.32 -0.158,1.935 -0.093,0.248 -0.206,0.487 -0.339,0.715 -0.311,0.524 -0.68,1.011 -1.099,1.452 l -0.089,0.095 c -0.133,0.14 -0.271,0.28 -0.416,0.42 -0.064,0.063 -0.131,0.125 -0.198,0.188 l -0.205,0.189 -0.107,0.095 c -0.258,0.23 -0.523,0.453 -0.792,0.669 -0.163,0.132 -0.327,0.261 -0.493,0.388 -0.586,0.448 -1.183,0.88 -1.791,1.297 -0.367,0.252 -0.737,0.499 -1.11,0.743 -0.919,0.603 -1.848,1.191 -2.786,1.763 -1.968,1.21 -4.149,2.504 -6.474,3.911 l -0.602,0.365 c -0.659,0.402 -1.281,0.786 -1.867,1.152 l -0.295,0.185 -0.558,0.358 c -0.37,0.237 -0.739,0.476 -1.108,0.715 l -0.297,0.196 c -0.145,0.094 -0.289,0.19 -0.433,0.286 l -0.141,0.09 -0.432,0.291 -0.229,0.157 -0.268,0.186 -0.249,0.173 c -0.417,0.295 -0.805,0.576 -1.162,0.843 l -0.134,0.102 c -0.21,0.159 -0.418,0.321 -0.623,0.486 -0.309,0.249 -0.591,0.487 -0.844,0.716 l -0.124,0.113 c -0.071,0.065 -0.141,0.13 -0.208,0.194 -0.046,0.045 -0.089,0.09 -0.137,0.133 l -0.064,0.064 c -0.143,0.144 -0.283,0.291 -0.418,0.442 l -0.066,0.076 c -0.147,0.17 -0.275,0.333 -0.387,0.492 l -0.05,0.071 c -0.088,0.128 -0.169,0.26 -0.242,0.396 -0.019,0.034 -0.036,0.068 -0.053,0.102 l -0.049,0.102 -0.033,0.074 -0.021,0.05 -0.017,0.045 -0.023,0.061 c -0.062,0.169 -0.105,0.345 -0.13,0.523 l -0.008,0.062 -0.006,0.058 v 0.315 c 0,0.026 0,0.052 0.007,0.08 l 0.005,0.048 c 0,0.026 0.006,0.051 0.01,0.079 0.004,0.026 0.011,0.073 0.019,0.11 v 0.005 c 0.007,0.035 0.014,0.069 0.023,0.104 0.009,0.035 0.018,0.075 0.029,0.111 0.019,0.071 0.043,0.141 0.068,0.211 0.016,0.042 0.031,0.083 0.048,0.124 0,0.008 0.006,0.017 0.01,0.025 l 0.036,0.081 0.05,0.111 c 0.054,0.115 0.113,0.227 0.177,0.336 l 0.066,0.114 0.068,0.114 c 0.012,0.019 0.026,0.037 0.041,0.054 l 0.022,0.023 0.025,0.023 0.026,0.02 c 0.038,0.027 0.079,0.048 0.122,0.063 0.023,0.008 0.047,0.014 0.071,0.02 0.577,0.13 1.763,-0.347 3.339,-1.179 0.089,-0.048 0.187,-0.098 0.282,-0.15 l 0.48,-0.262 0.234,-0.13 c 0.167,-0.089 0.337,-0.19 0.511,-0.289 l 0.317,-0.179 c 2.083,-1.199 4.571,-2.739 7.143,-4.243 0.241,-0.141 0.483,-0.282 0.725,-0.421 l 0.486,-0.311 c 0.564,-0.323 1.131,-0.642 1.7,-0.957 0.717,-0.394 1.439,-0.778 2.168,-1.15 l 0.476,-0.241 c 0.316,-0.156 0.629,-0.308 0.938,-0.456 0.598,-0.284 1.203,-0.554 1.815,-0.809 l 0.335,-0.136 0.04,-0.016 c 1.775,-0.703 3.384,-1.137 4.686,-1.137 0.281,-0.003 0.563,0.021 0.84,0.069 h 0.009 c 0.089,0.016 0.17,0.034 0.253,0.054 h 0.015 c 0.213,0.054 0.42,0.131 0.616,0.23 0.275,0.142 0.522,0.331 0.731,0.559 0.096,0.106 0.181,0.221 0.256,0.343 0.14,0.215 0.25,0.448 0.329,0.692 0.032,0.095 0.06,0.188 0.089,0.287 0.211,0.757 0.19,1.56 -0.06,2.305 z"
           fill="#ff9d00"
           id="path2-87" /><path
           fill-rule="evenodd"
           clip-rule="evenodd"
           d="m 203.21,123.685 v -0.491 c 0,-41.854 -33.918,-75.783 -75.775,-75.783 -41.8559,0 -75.787,33.931 -75.787,75.783 v 0.164 c -0.002,0.109 -0.003,0.218 0,0.327 0.0049,0.163 0.0066,0.326 0.005,0.489 l 0.0051,0.36 0.0029,0.129 c 0,0.06 0.0021,0.119 0.0041,0.179 0.003,0.095 0.0049,0.191 0.0049,0.286 l 0.011,0.389 0.016,0.457 0.005,0.15 0.02,0.473 v 0.023 c 0.008,0.185 0.0181,0.369 0.0271,0.553 l 9e-4,0.014 c 0.01,0.188 0.0201,0.377 0.0321,0.566 0.01,0.174 0.0199,0.348 0.0329,0.522 l 0.0021,0.031 c 0.0087,0.149 0.0187,0.299 0.0299,0.448 l 0.003,0.04 0.033,0.432 0.0031,0.028 c 0.006,0.084 0.0119,0.168 0.0199,0.249 0.0598,0.721 0.1295,1.442 0.2091,2.161 l 0.0049,0.045 0.061,0.529 0.0681,0.555 0.0499,0.377 0.023,0.177 c 0.0533,0.408 0.111,0.815 0.173,1.221 l 0.0041,0.027 0.0589,0.384 c 0.2855,1.829 0.6391,3.647 1.06,5.45 l 0.0051,0.022 0.0319,0.135 0.091,0.385 0.056,-0.067 c 2.2,-2.63 5.356,-4.08 8.887,-4.08 2.83,0 5.7331,0.936 8.6431,2.781 1.93,1.226 4.064,3.397 6.26,6.128 2.032,-2.822 4.88,-4.698 8.138,-5.21 0.6212,-0.098 1.2491,-0.147 1.878,-0.148 7.436,0 11.9149,6.453 13.6069,12.258 0.836,1.961 4.865,10.893 10.941,16.935 9.236,9.227 11.547,18.748 6.976,28.943 h 0.016 c 0.311,0.035 0.624,0.067 0.939,0.096 0.187,0.018 0.373,0.036 0.561,0.052 l 0.066,0.006 0.413,0.035 0.38,0.03 c 0.362,0.028 0.725,0.054 1.089,0.077 l 0.289,0.017 0.229,0.014 0.142,0.008 0.447,0.023 0.122,0.005 0.469,0.021 0.522,0.02 0.419,0.012 0.07,0.002 c 0.089,0.004 0.178,0.007 0.267,0.007 l 0.096,0.003 c 0.59,0.014 1.179,0.021 1.769,0.02 h 0.626 l 0.447,-0.005 c 0.11,-0.005 0.219,-0.005 0.33,-0.005 h 0.174 l 0.151,-0.004 c 0.059,-0.002 0.118,-0.004 0.178,-0.004 h 0.179 l 0.351,-0.009 0.528,-0.018 0.581,-0.026 c 0.168,-0.006 0.334,-0.015 0.5,-0.023 l 0.179,-0.011 0.266,-0.014 0.156,-0.009 0.118,-0.008 0.537,-0.035 0.536,-0.039 0.487,-0.039 0.342,-0.029 0.376,-0.034 c 0.628,-0.056 1.254,-0.122 1.88,-0.197 l 0.427,-0.051 c -4.499,-10.152 -2.17,-19.632 7.027,-28.822 6.063,-6.058 10.092,-14.99 10.932,-16.952 1.693,-5.804 6.169,-12.257 13.607,-12.257 0.629,0 1.258,0.05 1.879,0.148 3.255,0.512 6.103,2.388 8.138,5.21 2.197,-2.73 4.33,-4.903 6.261,-6.129 2.909,-1.844 5.815,-2.78 8.642,-2.78 3.116,0 5.94,1.13 8.073,3.203 0.039,-0.169 0.077,-0.338 0.114,-0.508 l 0.109,-0.506 c 0.039,-0.185 0.078,-0.37 0.115,-0.555 0.066,-0.327 0.132,-0.654 0.195,-0.984 0.066,-0.342 0.129,-0.686 0.189,-1.03 l 0.031,-0.186 c 0.019,-0.11 0.037,-0.22 0.058,-0.331 0.034,-0.172 0.062,-0.344 0.09,-0.518 l 0.011,-0.066 0.071,-0.453 0.07,-0.459 v -0.004 c 0.051,-0.339 0.099,-0.678 0.144,-1.017 l 0.011,-0.084 0.063,-0.478 0.051,-0.408 0.09,-0.804 0.035,-0.323 0.009,-0.088 c 0.019,-0.174 0.037,-0.348 0.053,-0.522 v -0.014 c 0.013,-0.138 0.027,-0.277 0.039,-0.416 0.071,-0.788 0.131,-1.58 0.179,-2.375 0.009,-0.13 0.016,-0.261 0.024,-0.392 v -0.006 l 0.026,-0.491 0.006,-0.11 c 0.016,-0.332 0.03,-0.664 0.041,-0.996 v -0.012 l 0.005,-0.13 c 0.005,-0.109 0.009,-0.219 0.009,-0.329 l 0.002,-0.044 c 0.004,-0.103 0.008,-0.209 0.008,-0.314 l 0.003,-0.09 c 0.003,-0.105 0.006,-0.209 0.006,-0.314 l 0.002,-0.089 c 0.003,-0.133 0.006,-0.267 0.006,-0.4 z m -94.572,75.706 c 6.002,-8.801 5.576,-15.407 -2.658,-23.637 -8.2359,-8.231 -13.029,-20.267 -13.029,-20.267 0,0 -1.7889,-6.991 -5.8689,-6.349 -4.08,0.642 -7.073,11.089 1.47,17.484 8.542,6.395 -1.7,10.731 -4.988,4.73 -3.288,-6.002 -12.2651,-21.429 -16.9191,-24.38 -4.654,-2.951 -7.927,-1.297 -6.83,4.785 0.545,3.019 5.6131,8.172 10.3481,12.986 4.804,4.884 9.2649,9.42 8.3109,11.025 -1.893,3.187 -8.5599,-3.745 -8.5599,-3.745 0,0 -20.8761,-18.998 -25.4201,-14.047 -4.19,4.563 2.271,8.442 12.2271,14.421 0.846,0.508 1.718,1.032 2.611,1.572 11.391,6.896 12.2769,8.715 10.6599,11.324 -0.597,0.964 -4.41,-1.325 -9.1,-4.14 -7.995,-4.801 -18.5369,-11.13 -20.0259,-5.465 -1.288,4.903 6.4679,7.907 13.5019,10.632 5.86,2.27 11.2201,4.346 10.4311,7.164 -0.817,2.922 -5.246,0.485 -10.087,-2.179 -5.435,-2.991 -11.39,-6.267 -13.339,-2.57 -3.683,6.99 25.41,15.219 25.65,15.28 9.4,2.438 33.2719,7.604 41.6149,-4.624 z m 38.665,0 c -6.002,-8.801 -5.576,-15.407 2.659,-23.637 8.235,-8.231 13.028,-20.267 13.028,-20.267 0,0 1.789,-6.991 5.869,-6.349 4.08,0.642 7.073,11.089 -1.469,17.484 -8.543,6.395 1.699,10.731 4.987,4.73 3.289,-6.002 12.26,-21.429 16.914,-24.38 4.654,-2.951 7.929,-1.297 6.831,4.785 -0.544,3.019 -5.613,8.172 -10.348,12.987 -4.804,4.884 -9.265,9.419 -8.312,11.024 1.893,3.187 8.565,-3.749 8.565,-3.749 0,0 20.875,-18.997 25.421,-14.046 4.189,4.562 -2.272,8.442 -12.229,14.421 -0.871,0.523 -1.741,1.047 -2.61,1.572 -11.391,6.896 -12.277,8.715 -10.661,11.323 0.598,0.965 4.411,-1.325 9.1,-4.14 7.996,-4.8 18.538,-11.13 20.027,-5.464 1.289,4.903 -6.468,7.907 -13.502,10.632 -5.86,2.27 -11.22,4.346 -10.432,7.164 0.816,2.921 5.244,0.484 10.084,-2.18 5.435,-2.991 11.391,-6.269 13.339,-2.569 3.684,6.994 -25.414,15.215 -25.649,15.275 -9.4,2.446 -33.272,7.612 -41.612,-4.616 z"
           fill="#ffd21e"
           id="path3-8" /><path
           fill-rule="evenodd"
           clip-rule="evenodd"
           d="m 152.047,102.567 c 1.182,0.418 2.061,1.69 2.897,2.901 1.13,1.636 2.182,3.159 3.796,2.301 1.904,-1.013 3.465,-2.567 4.485,-4.467 1.021,-1.9 1.456,-4.0593 1.25,-6.206 -0.154,-1.6052 -0.662,-3.1562 -1.488,-4.5412 -0.826,-1.3851 -1.949,-2.5698 -3.287,-3.4686 -1.339,-0.8988 -2.861,-1.4894 -4.455,-1.7293 -1.595,-0.2399 -3.223,-0.123 -4.767,0.3421 -1.544,0.4649 -2.965,1.2663 -4.162,2.3465 -1.197,1.0802 -2.14,2.4123 -2.76,3.9005 -0.62,1.4882 -0.903,3.0955 -0.828,4.706 0.076,1.611 0.507,3.184 1.264,4.608 0.748,1.407 2.408,0.743 4.16,0.042 1.373,-0.549 2.804,-1.121 3.895,-0.735 z m -51.375,0 c -1.182,0.418 -2.061,1.691 -2.897,2.901 -1.13,1.637 -2.183,3.159 -3.796,2.301 -2.3945,-1.268 -4.2308,-3.383 -5.1512,-5.931 -0.9203,-2.5485 -0.8586,-5.3484 0.173,-7.8539 1.0316,-2.5055 2.9593,-4.537 5.4072,-5.6986 2.448,-1.1616 5.2408,-1.3699 7.834,-0.5845 2.065,0.6218 3.899,1.8417 5.271,3.5055 1.372,1.6639 2.219,3.697 2.436,5.8425 0.216,2.1455 -0.209,4.307 -1.221,6.211 -0.749,1.407 -2.409,0.743 -4.161,0.043 -1.374,-0.55 -2.803,-1.122 -3.895,-0.736 z m 43.427,46.751 c 8.143,-6.415 11.134,-16.889 11.134,-23.341 0,-5.1 -3.431,-3.495 -8.924,-0.775 l -0.31,0.153 c -5.042,2.497 -11.754,5.822 -19.122,5.822 -7.369,0 -14.081,-3.325 -19.122,-5.823 -5.671,-2.809 -9.228,-4.571 -9.228,0.624 0,6.656 3.182,17.585 11.916,23.934 1.153,-2.339 2.776,-4.415 4.768,-6.099 1.991,-1.684 4.309,-2.939 6.807,-3.687 0.872,-0.26 1.77,1.241 2.689,2.778 0.887,1.482 1.794,2.998 2.716,2.998 0.983,0 1.948,-1.494 2.891,-2.952 0.985,-1.525 1.946,-3.01 2.875,-2.713 4.675,1.501 8.586,4.756 10.91,9.081 z"
           fill="#32343d"
           id="path4-0" /><path
           d="m 144.097,149.317 c -4.241,3.342 -9.878,5.583 -17.219,5.583 -6.897,0 -12.291,-1.978 -16.435,-4.989 1.153,-2.339 2.776,-4.416 4.768,-6.099 1.991,-1.684 4.309,-2.939 6.807,-3.687 1.712,-0.511 3.527,5.776 5.405,5.776 2.01,0 3.947,-6.246 5.766,-5.665 4.674,1.502 8.584,4.757 10.908,9.081 z"
           fill="#ff323d"
           id="path5-4" /><path
           fill-rule="evenodd"
           clip-rule="evenodd"
           d="m 81.2,111.64 c -0.9688,0.648 -2.0827,1.047 -3.2428,1.161 -1.1601,0.115 -2.3305,-0.059 -3.4072,-0.506 -0.8607,-0.355 -1.6428,-0.877 -2.3012,-1.536 -0.6585,-0.658 -1.1804,-1.44 -1.5358,-2.301 -0.446,-1.077 -0.6195,-2.247 -0.5048,-3.407 0.1146,-1.16 0.5137,-2.274 1.1618,-3.243 0.7788,-1.166 1.8858,-2.0747 3.1812,-2.6113 1.2954,-0.5366 2.7208,-0.677 4.0959,-0.4032 1.3752,0.2737 2.6382,0.9492 3.6293,1.9405 0.9911,0.992 1.6658,2.256 1.9386,3.631 0.2733,1.375 0.1327,2.8 -0.4037,4.095 -0.5365,1.295 -1.4459,2.401 -2.6113,3.18 z m 101.413,0 c -0.969,0.648 -2.083,1.047 -3.243,1.161 -1.161,0.115 -2.331,-0.059 -3.408,-0.506 -0.861,-0.356 -1.643,-0.877 -2.301,-1.536 -0.658,-0.658 -1.18,-1.44 -1.536,-2.301 -0.445,-1.077 -0.618,-2.247 -0.504,-3.407 0.115,-1.16 0.514,-2.274 1.161,-3.243 0.582,-0.872 1.351,-1.603 2.25,-2.1422 0.899,-0.5389 1.906,-0.8716 2.949,-0.9741 1.044,-0.1026 2.097,0.0276 3.083,0.3811 0.987,0.3536 1.883,0.9216 2.624,1.6632 0.992,0.991 1.667,2.254 1.94,3.629 0.274,1.375 0.133,2.8 -0.404,4.095 -0.537,1.295 -1.445,2.401 -2.611,3.18 z"
           fill="#ffad03"
           id="path6" /></g><g
         id="g5"
         transform="matrix(0.04133025,0,0,0.04133025,556.55655,30.640472)"><path
           d="M 140.629,0.239929 C 132.66,1.52725 123.097,5.69568 116.354,10.845 95.941,26.3541 80.1253,59.2728 73.4435,100.283 c -2.5133,15.509 -4.2297,37.026 -4.2297,53.455 0,19.371 2.2681,44.136 5.5171,61.239 0.7356,3.801 1.1034,7.173 0.7969,7.418 -0.2452,0.245 -3.249,2.697 -6.6206,5.394 C 57.3827,236.984 44.2029,251.145 35.1304,264.08 17.7209,288.784 6.44151,316.86 1.72133,347.265 -0.117698,359.28 -0.608106,383.555 0.863118,395.57 4.11207,423.278 12.449,446.695 26.7321,468.151 l 4.6589,6.927 -1.3486,2.268 c -9.563,16.061 -17.716,39.294 -21.51665,61.607 -3.00375,17.655 -3.37156,22.375 -3.37156,46.037 0,23.847 0.30651,28.567 3.12635,45.057 3.37156,19.739 10.23726,40.642 17.89986,54.558 2.5134,4.536 8.6435,13.976 9.3791,14.467 0.2452,0.122 -0.4904,2.39 -1.6551,5.026 -8.8274,19.31 -16.3674,44.995 -19.4938,66.635 -2.2068,14.834 -2.5133,19.616 -2.5133,35.248 0,19.922 1.1034,29.608 5.2719,45.485 l 0.613,2.329 H 44.019 70.3172 l -1.7165,-3.249 c -10.605,-19.616 -11.5858,-56.029 -2.452,-92.38 4.1685,-16.797 8.8887,-29.118 17.716,-46.099 l 5.2719,-10.298 v -6.314 c 0,-5.885 -0.1226,-6.559 -2.0229,-10.421 -1.4713,-2.943 -3.4329,-5.456 -6.9271,-8.889 -5.9462,-5.762 -10.2372,-11.831 -13.6701,-19.31 -15.08,-32.735 -18.0225,-81.346 -7.4174,-122.786 4.4137,-17.287 11.7085,-32.673 19.3711,-41.071 5.2106,-5.763 7.9078,-12.199 7.9078,-18.881 0,-6.927 -2.452,-12.628 -7.9691,-18.574 -15.8157,-16.919 -25.5625,-37.517 -29.0567,-61.485 -4.9654,-34.145 4.0459,-71.355 24.5204,-100.84 20.0455,-28.935 48.1824,-47.509 79.6304,-52.474 7.049,-1.165 20.229,-0.981 27.585,0.368 8.031,1.41 13.057,0.98 18.207,-1.472 6.375,-3.003 9.563,-6.743 13.302,-15.325 3.31,-7.662 5.885,-11.831 12.812,-20.474 8.337,-10.36 16.367,-17.41 29.24,-25.931 14.713,-9.624 31.448,-16.612 48.122,-19.984 6.068,-1.226 8.888,-1.41 20.229,-1.41 11.341,0 14.161,0.184 20.229,1.41 24.459,4.966 48.735,17.594 68.106,35.493 4.168,3.862 14.16,16.245 17.348,21.395 1.226,2.022 3.372,6.314 4.72,9.501 3.739,8.582 6.927,12.322 13.302,15.325 4.966,2.391 10.176,2.882 17.9,1.594 12.199,-2.084 21.578,-1.9 33.532,0.552 40.704,8.214 76.136,41.746 91.829,86.68 13.67,39.416 9.808,80.672 -10.544,112.18 -3.433,5.334 -6.866,9.625 -11.831,14.897 -10.728,11.463 -10.728,25.685 -0.061,37.455 17.532,19.187 28.505,66.389 25.194,108.012 -2.206,27.463 -9.256,52.045 -18.942,65.96 -1.716,2.452 -5.271,6.62 -7.969,9.195 -3.494,3.433 -5.455,5.946 -6.927,8.889 -1.9,3.862 -2.023,4.536 -2.023,10.421 v 6.314 l 5.272,10.298 c 8.828,16.981 13.548,29.302 17.716,46.099 9.012,35.861 8.215,71.538 -2.084,91.829 -0.858,1.716 -1.594,3.31 -1.594,3.494 0,0.184 11.709,0.306 26.053,0.306 h 25.992 l 0.674,-2.636 c 0.368,-1.409 0.981,-3.555 1.287,-4.781 0.675,-2.697 2.023,-10.666 3.127,-18.329 1.042,-7.724 1.042,-36.168 0,-44.75 -3.923,-31.141 -10.483,-55.845 -21.21,-79.201 -1.165,-2.636 -1.901,-4.904 -1.656,-5.026 0.307,-0.184 2.023,-2.636 3.862,-5.395 13.364,-20.229 21.578,-45.669 25.747,-79.262 1.103,-9.257 1.103,-49.041 0,-57.93 -2.943,-22.926 -6.498,-38.497 -12.383,-54.251 -2.452,-6.559 -8.95,-20.413 -11.708,-24.888 l -1.349,-2.268 4.659,-6.927 c 14.283,-21.456 22.62,-44.873 25.869,-72.581 1.471,-12.015 0.981,-36.29 -0.858,-48.305 -4.782,-30.467 -16,-58.42 -33.409,-83.185 -9.073,-12.935 -22.253,-27.096 -33.777,-36.291 -3.372,-2.697 -6.376,-5.149 -6.621,-5.394 -0.306,-0.245 0.062,-3.617 0.797,-7.418 7.418,-38.681 7.172,-86.924 -0.613,-124.6246 C 563.913,57.4951 551.653,31.3808 535.837,16.3008 523.209,4.28578 510.336,-0.863507 494.888,0.11731 459.456,2.20154 430.89,42.9667 419.61,107.21 c -1.839,10.36 -3.432,22.498 -3.432,25.808 0,1.287 -0.246,2.329 -0.552,2.329 -0.307,0 -2.697,-1.226 -5.272,-2.758 -27.34,-16.184 -57.746,-24.827 -87.354,-24.827 -29.608,0 -60.014,8.643 -87.354,24.827 -2.575,1.532 -4.965,2.758 -5.272,2.758 -0.306,0 -0.552,-1.042 -0.552,-2.329 0,-3.433 -1.655,-15.938 -3.432,-25.808 C 216.152,49.5259 192.674,11.3354 161.472,1.71112 157.181,0.423799 144.982,-0.434382 140.629,0.239929 Z M 151.051,50.139 c 8.827,6.9883 18.635,26.9724 24.275,49.3473 1.042,4.0457 2.145,8.7047 2.452,10.4207 0.245,1.656 0.919,5.395 1.471,8.276 2.391,12.996 3.494,27.034 3.617,44.137 l 0.061,16.858 -4.23,6.252 -4.229,6.314 h -9.87 c -11.524,0 -22.988,1.472 -33.961,4.414 -3.923,0.981 -7.724,1.962 -8.459,2.146 -1.165,0.245 -1.349,-0.123 -2.023,-5.15 -3.617,-27.279 -3.433,-57.5 0.552,-82.634 4.413,-28.0141 14.712,-53.3927 24.765,-60.8714 2.391,-1.7778 2.82,-1.7165 5.579,0.4904 z m 349.538,-0.4292 c 6.069,4.475 12.751,16.3674 17.716,31.57 9.992,30.4052 12.812,72.1512 7.54,111.8742 -0.674,5.027 -0.858,5.395 -2.023,5.15 -0.735,-0.184 -4.536,-1.165 -8.459,-2.146 -10.973,-2.942 -22.437,-4.414 -33.961,-4.414 h -9.87 l -4.229,-6.314 -4.23,-6.252 0.061,-16.858 c 0.123,-23.785 2.33,-42.359 7.601,-63.0176 5.579,-22.191 15.448,-42.1751 24.214,-49.1634 2.759,-2.2069 3.188,-2.2682 5.64,-0.4292 z"
           fill="#000000"
           id="path1-0" /><path
           d="m 313.498,358.237 c -13.303,1.288 -16.919,1.778 -23.295,3.066 -10.36,2.145 -24.214,6.927 -33.838,11.647 -33.47,16.367 -56.519,43.646 -63.569,75.216 -1.41,6.253 -1.594,8.337 -1.594,18.881 0,10.421 0.184,12.689 1.533,18.635 9.379,41.256 47.385,71.723 96.549,77.301 10.666,1.165 56.765,1.165 67.431,0 39.478,-4.475 73.439,-25.869 88.703,-55.907 4.045,-8.03 6.007,-13.241 7.846,-21.394 1.349,-5.946 1.533,-8.214 1.533,-18.635 0,-10.544 -0.184,-12.628 -1.594,-18.881 -10.238,-45.853 -54.742,-81.959 -109.3,-88.825 -7.111,-0.858 -25.746,-1.594 -30.405,-1.104 z m 22.926,33.348 c 18.207,1.962 36.536,8.46 51.248,18.268 7.908,5.272 19.065,16.306 23.846,23.54 5.885,8.949 9.256,18.083 10.789,29.179 0.674,5.088 0.307,8.95 -1.533,17.164 -2.881,12.26 -11.831,25.072 -23.907,34.022 -5.64,4.107 -17.348,10.054 -24.52,12.383 -13.609,4.352 -22.498,5.149 -54.252,4.904 -20.719,-0.184 -24.398,-0.368 -30.344,-1.471 -20.29,-3.801 -36.351,-11.893 -47.998,-24.214 -9.441,-9.931 -13.732,-19.003 -16.061,-33.654 -1.042,-6.805 0.919,-18.084 4.904,-27.586 4.843,-11.586 17.348,-25.991 29.731,-34.267 14.344,-9.563 33.225,-16.367 50.573,-18.206 6.682,-0.736 20.842,-0.736 27.524,-0.062 z"
           fill="#000000"
           id="path2-1" /><path
           d="m 299.584,436.336 c -4.659,2.513 -7.908,8.888 -6.927,13.608 1.103,5.088 5.578,10.238 12.566,14.468 3.74,2.268 3.985,2.574 4.169,4.842 0.122,1.349 -0.368,5.211 -1.042,8.644 -0.736,3.371 -1.288,6.927 -1.288,7.908 0.062,2.636 2.514,6.927 5.088,9.011 2.269,1.839 2.698,1.9 9.073,2.084 5.824,0.184 7.05,0.061 9.379,-1.042 6.008,-2.943 7.54,-8.337 5.333,-18.697 -1.839,-8.643 -1.471,-9.992 3.127,-12.628 4.842,-2.82 9.992,-7.785 11.524,-11.157 2.943,-6.436 0.245,-13.731 -6.253,-17.103 -1.593,-0.797 -3.555,-1.164 -6.436,-1.164 -4.475,0 -7.356,1.042 -12.628,4.413 l -3.004,1.901 -1.9,-1.165 c -7.785,-4.598 -9.195,-5.149 -13.916,-5.088 -3.371,0 -5.21,0.306 -6.865,1.165 z"
           fill="#000000"
           id="path3-94" /><path
           d="m 150.744,365.165 c -10.85,3.433 -18.942,11.402 -23.11,22.743 -2.023,5.395 -3.004,13.916 -2.146,18.513 2.023,10.973 11.034,20.965 21.272,23.724 12.873,3.371 22.497,1.164 31.018,-7.295 4.965,-4.843 7.663,-9.073 10.36,-15.939 1.961,-4.842 2.084,-5.7 2.084,-12.566 l 0.061,-7.356 -2.574,-5.272 c -4.108,-8.337 -11.525,-14.529 -20.107,-16.797 -4.843,-1.226 -12.628,-1.164 -16.858,0.245 z"
           fill="#000000"
           id="path4-5" /><path
           d="m 478.153,364.982 c -8.398,2.268 -15.877,8.52 -19.862,16.735 l -2.574,5.272 0.061,7.356 c 0,6.866 0.123,7.724 2.084,12.566 2.698,6.866 5.395,11.096 10.36,15.939 8.521,8.459 18.145,10.666 31.019,7.295 7.417,-1.962 14.834,-8.215 18.39,-15.51 3.065,-6.191 3.8,-10.666 2.82,-17.716 -2.268,-16.122 -11.709,-27.83 -25.747,-31.937 -4.107,-1.226 -12.076,-1.226 -16.551,0 z"
           fill="#000000"
           id="path5-9" /></g><path
         id="path110-5"
         style="fill:#cf3c23;stroke-linecap:round;stroke-linejoin:round"
         d="M 469.9999 73.577984 A 1 1 0 0 0 469.00017 74.578085 L 469.00017 149.99988 A 1.0001 1.0001 0 0 0 469.9999 150.99998 L 477.66404 150.99998 L 474.11903 154.54499 A 1.000015 1.000015 0 0 0 474.11903 155.95895 A 1.000015 1.000015 0 0 0 475.53336 155.95895 L 480.78526 150.70704 A 1.000115 1.000115 0 0 0 480.78526 149.29308 L 475.53336 144.04117 A 1.000015 1.000015 0 0 0 474.11903 144.04117 A 1.000015 1.000015 0 0 0 474.11903 145.45514 L 477.6644 149.00015 L 471.00001 149.00015 L 471.00001 74.578085 A 1 1 0 0 0 469.9999 73.577984 z " /><path
         id="path110-5-0"
         style="fill:#cf3c23;stroke-linecap:round;stroke-linejoin:round;stroke:none"
         d="M 570.00007 73.577984 A 1 1 0 0 0 568.99997 74.578085 L 568.99997 149.00015 L 562.52927 149.00015 L 566.12022 145.40919 A 1.000015 1.000015 0 0 0 566.12022 143.99523 A 1.000015 1.000015 0 0 0 564.70589 143.99523 L 559.45399 149.24714 A 1.000115 1.000115 0 0 0 559.45399 150.66147 L 564.70589 155.91338 A 1.000015 1.000015 0 0 0 566.12022 155.91338 A 1.000015 1.000015 0 0 0 566.12022 154.49905 L 562.62079 150.99998 L 570.00007 150.99998 A 1.0001 1.0001 0 0 0 571.00017 149.99988 L 571.00017 74.578085 A 1 1 0 0 0 570.00007 73.577984 z " /><g
         id="g54-2-4-9"
         transform="matrix(0.35891434,0,0,0.35891434,404.15284,112.31399)"><path
           style="font-weight:500;font-size:37.9182px;line-height:1.25;font-family:'Red Hat Display';-inkscape-font-specification:'Red Hat Display Medium';fill:#cf3c23;stroke-width:1.32379"
           d="m 260.11717,132.53201 h 5.29517 v -18.05652 c 1.37674,-3.1771 3.86547,-4.87156 6.98961,-4.87156 1.05905,0 2.11807,0.21181 3.12416,0.58246 v -4.76563 c -0.79428,-0.31771 -1.5356,-0.42362 -2.70054,-0.47658 -3.17711,0 -5.71878,1.48265 -7.41323,4.07728 v -3.44185 h -5.29517 z m 27.05832,0.47656 c 3.283,0 5.98354,-0.90018 8.36637,-2.80644 v 2.32988 h 5.18926 v -17.89767 c 0,-6.1424 -3.97137,-9.58425 -11.01394,-9.58425 -3.54776,0 -6.98963,0.84723 -11.06691,2.75349 l 1.95922,3.97137 c 3.33595,-1.58856 5.87764,-2.27692 8.36636,-2.27692 4.28909,0 6.56601,1.95921 6.56601,5.77173 v 2.85939 c -2.22398,-1.00608 -4.76565,-1.53559 -7.36028,-1.53559 -6.77782,0 -10.90805,3.12414 -10.90805,8.20751 0,4.87154 4.07728,8.2075 9.90196,8.2075 z m -4.8186,-8.31341 c 0,-2.70054 2.38283,-4.44794 6.24831,-4.44794 2.70052,0 4.9245,0.52951 6.93666,1.69446 v 4.55384 c -1.95921,1.7474 -4.28909,2.54167 -7.14848,2.54167 -3.60072,0 -6.03649,-1.7474 -6.03649,-4.34203 z m 24.46365,7.83685 h 5.29517 v -19.59212 c 1.48265,-2.17103 3.54776,-3.28301 6.08945,-3.28301 3.75957,0 6.19535,2.64758 6.19535,6.83077 v 16.04436 h 5.24221 v -16.94454 c 0,-0.79427 -0.10585,-1.5356 -0.2118,-2.27692 1.53559,-2.43578 3.70661,-3.65367 6.30124,-3.65367 3.81252,0 6.19535,2.64758 6.19535,6.83077 v 16.04436 h 5.29517 v -16.94454 c 0,-6.2483 -4.13023,-10.53738 -10.11378,-10.53738 -3.81252,0 -6.88371,1.5356 -9.10769,4.5009 -1.69445,-2.80645 -4.65974,-4.5009 -8.3134,-4.5009 -3.01825,0 -5.55994,1.05903 -7.5721,3.12414 v -2.59462 h -5.29517 z m 55.01681,0.47656 c 3.283,0 5.98354,-0.90018 8.36637,-2.80644 v 2.32988 h 5.18926 v -17.89767 c 0,-6.1424 -3.97137,-9.58425 -11.01394,-9.58425 -3.54777,0 -6.98962,0.84723 -11.06691,2.75349 l 1.95922,3.97137 c 3.33595,-1.58856 5.87764,-2.27692 8.36636,-2.27692 4.28909,0 6.56601,1.95921 6.56601,5.77173 v 2.85939 c -2.22397,-1.00608 -4.76565,-1.53559 -7.36028,-1.53559 -6.77782,0 -10.90805,3.12414 -10.90805,8.20751 0,4.87154 4.07728,8.2075 9.90196,8.2075 z m -4.8186,-8.31341 c 0,-2.70054 2.38283,-4.44794 6.24831,-4.44794 2.70052,0 4.9245,0.52951 6.93666,1.69446 v 4.55384 c -1.95921,1.7474 -4.28908,2.54167 -7.14848,2.54167 -3.6007,0 -6.03649,-1.7474 -6.03649,-4.34203 z"
           id="text1-8-8-5"
           aria-label="rama"
           transform="matrix(0.81356383,0,0,0.81356383,19.593859,11.737648)" /><path
           style="font-weight:500;font-size:37.9182px;line-height:1.25;font-family:'Red Hat Display';-inkscape-font-specification:'Red Hat Display Medium';stroke-width:1.32379"
           d="m 381.42026,132.53201 h 5.29517 V 94.459764 l -5.29517,1.006073 z m 20.06872,0.47656 c 3.28299,0 5.98353,-0.90018 8.36635,-2.80644 v 2.32988 h 5.18928 v -17.89767 c 0,-6.1424 -3.97139,-9.58425 -11.01396,-9.58425 -3.54776,0 -6.98962,0.84723 -11.06689,2.75349 l 1.9592,3.97137 c 3.33596,-1.58856 5.87764,-2.27692 8.36637,-2.27692 4.28908,0 6.566,1.95921 6.566,5.77173 v 2.85939 c -2.22396,-1.00608 -4.76565,-1.53559 -7.36028,-1.53559 -6.77782,0 -10.90805,3.12414 -10.90805,8.20751 0,4.87154 4.07728,8.2075 9.90198,8.2075 z m -4.81861,-8.31341 c 0,-2.70054 2.38282,-4.44794 6.2483,-4.44794 2.70054,0 4.9245,0.52951 6.93666,1.69446 v 4.55384 c -1.9592,1.7474 -4.28908,2.54167 -7.14848,2.54167 -3.6007,0 -6.03648,-1.7474 -6.03648,-4.34203 z m 24.46365,7.83685 h 5.29516 v -19.59212 c 1.48265,-2.17103 3.54777,-3.28301 6.08946,-3.28301 3.75956,0 6.19534,2.64758 6.19534,6.83077 v 16.04436 h 5.24222 v -16.94454 c 0,-0.79427 -0.10586,-1.5356 -0.21181,-2.27692 1.53559,-2.43578 3.70662,-3.65367 6.30124,-3.65367 3.81252,0 6.19535,2.64758 6.19535,6.83077 v 16.04436 h 5.29517 v -16.94454 c 0,-6.2483 -4.13023,-10.53738 -10.11376,-10.53738 -3.81254,0 -6.88373,1.5356 -9.1077,4.5009 -1.69445,-2.80645 -4.65975,-4.5009 -8.31341,-4.5009 -3.01825,0 -5.55992,1.05903 -7.5721,3.12414 v -2.59462 h -5.29516 z m 55.0168,0.47656 c 3.28301,0 5.98355,-0.90018 8.36637,-2.80644 v 2.32988 h 5.18926 v -17.89767 c 0,-6.1424 -3.97137,-9.58425 -11.01394,-9.58425 -3.54776,0 -6.98962,0.84723 -11.06691,2.75349 l 1.95922,3.97137 c 3.33595,-1.58856 5.87764,-2.27692 8.36636,-2.27692 4.28909,0 6.56601,1.95921 6.56601,5.77173 v 2.85939 c -2.22396,-1.00608 -4.76565,-1.53559 -7.36028,-1.53559 -6.77782,0 -10.90805,3.12414 -10.90805,8.20751 0,4.87154 4.07728,8.2075 9.90196,8.2075 z m -4.81859,-8.31341 c 0,-2.70054 2.38282,-4.44794 6.2483,-4.44794 2.70052,0 4.9245,0.52951 6.93666,1.69446 v 4.55384 c -1.95921,1.7474 -4.28908,2.54167 -7.14848,2.54167 -3.6007,0 -6.03648,-1.7474 -6.03648,-4.34203 z"
           id="text5-0-3-3"
           aria-label="lama"
           transform="matrix(0.81356383,0,0,0.81356383,19.593859,11.737648)" /></g><g
         id="path122"
         style="stroke:none;fill:#cf3c23;fill-opacity:1;stroke-width:1.00001562;stroke-dasharray:none" /><g
         transform="matrix(0.3564504,0,0,0.3564504,500.3697,30.76558)"
         id="Layer_1-7">
	
	
	
	
	
	
	
</g><g
         id="g24"
         transform="matrix(0.21655059,0,0,0.21655059,502.17842,30.76558)"><polygon
           class="cls-1"
           points="59.01,59.877 93.798,59.877 93.798,36.305 35.439,36.305 35.439,128.29 93.798,128.29 93.798,104.718 59.01,104.718 "
           id="polygon23"
           style="fill:#808285" /><rect
           class="cls-2"
           x="105.58468"
           y="36.304878"
           width="23.57181"
           height="23.573641"
           id="rect23"
           style="fill:#262262" /><rect
           class="cls-2"
           x="105.58468"
           y="71.664421"
           width="23.57181"
           height="56.625809"
           id="rect24"
           style="fill:#262262" /><path
           class="cls-2"
           d="M 11.51326,8.37852 V 172.97363 H 176.10838 V 8.37852 Z m 140.948,140.11033 H 35.16035 V 32.86324 h 117.30094 z"
           transform="translate(-11.51326,-8.37852)"
           id="path24"
           style="fill:#262262" /></g></g><path
       id="path4"
       style="stroke:none;fill:#cf3c23;fill-opacity:1;stroke-width:1.00001562;stroke-dasharray:none;stroke-linecap:round;stroke-linejoin:round"
       d="M 520.00017 73.577984 A 1 1 0 0 0 519.00007 74.578085 L 519.00007 136.441 L 515.40948 132.85041 A 1.000015 1.000015 0 0 0 513.99515 132.85041 A 1.000015 1.000015 0 0 0 513.99515 134.26437 L 519.24743 139.51628 A 1.000115 1.000115 0 0 0 520.66139 139.51628 L 525.9133 134.26437 A 1.000015 1.000015 0 0 0 525.9133 132.85041 A 1.000015 1.000015 0 0 0 524.49933 132.85041 L 520.9999 136.34948 L 520.9999 74.578085 A 1 1 0 0 0 520.00017 73.577984 z "
       transform="matrix(1.0627834,0,0,1.0627834,-28.88778,-1.654491)" /></g></svg>
