<?xml version="1.0" encoding="UTF-8" standalone="no"?>
<!-- Created with Inkscape (http://www.inkscape.org/) -->

<svg
   width="1000"
   height="1000"
   viewBox="0 0 200 200"
   version="1.1"
   id="svg1"
   xml:space="preserve"
   sodipodi:docname="ramalama-about-graphic-2.svg"
   inkscape:version="1.4 (e7c3feb1, 2024-10-09)"
   xmlns:inkscape="http://www.inkscape.org/namespaces/inkscape"
   xmlns:sodipodi="http://sodipodi.sourceforge.net/DTD/sodipodi-0.dtd"
   xmlns="http://www.w3.org/2000/svg"
   xmlns:svg="http://www.w3.org/2000/svg"><sodipodi:namedview
     id="namedview1"
     pagecolor="#ffffff"
     bordercolor="#000000"
     borderopacity="0.25"
     inkscape:showpageshadow="2"
     inkscape:pageopacity="0.0"
     inkscape:pagecheckerboard="0"
     inkscape:deskcolor="#d1d1d1"
     inkscape:zoom="0.6730485"
     inkscape:cx="546.76594"
     inkscape:cy="624.76924"
     inkscape:window-width="1104"
     inkscape:window-height="1010"
     inkscape:window-x="0"
     inkscape:window-y="44"
     inkscape:window-maximized="0"
     inkscape:current-layer="g123" /><defs
     id="defs1"><marker
       style="overflow:visible"
       id="ArrowWideRounded"
       refX="0"
       refY="0"
       orient="auto-start-reverse"
       markerWidth="0.80000001"
       markerHeight="0.80000001"
       viewBox="0 0 1 1"
       preserveAspectRatio="xMidYMid"><path
         style="fill:none;stroke:context-stroke;stroke-width:1;stroke-linecap:round"
         d="M 3,-3 0,0 3,3"
         transform="rotate(180,0.125,0)"
         id="path119" /></marker><clipPath
       id="clipPath81511"
       clipPathUnits="userSpaceOnUse"><rect
         y="-1.4835175"
         x="934.65692"
         height="12.832292"
         width="26.19375"
         id="rect81513"
         style="opacity:1;fill:#e7e8e9;fill-opacity:1;stroke:#a7a9ac;stroke-width:0.529167;stroke-linecap:square;stroke-linejoin:miter;stroke-miterlimit:4;stroke-dasharray:none;stroke-dashoffset:6;stroke-opacity:1" /></clipPath></defs><g
     id="layer1"
     transform="translate(-210)"><g
       id="g123"
       transform="matrix(1.0627834,0,0,1.0627834,5.2392601,-1.654491)"><g
         id="g54-2-4"
         transform="matrix(0.35891434,0,0,0.35891434,193.75284,112.50094)"><path
           style="font-weight:500;font-size:37.9182px;line-height:1.25;font-family:'Red Hat Display';-inkscape-font-specification:'Red Hat Display Medium';fill:#cf3c23;stroke-width:1.32379"
           d="m 260.11717,132.53201 h 5.29517 v -18.05652 c 1.37674,-3.1771 3.86547,-4.87156 6.98961,-4.87156 1.05905,0 2.11807,0.21181 3.12416,0.58246 v -4.76563 c -0.79428,-0.31771 -1.5356,-0.42362 -2.70054,-0.47658 -3.17711,0 -5.71878,1.48265 -7.41323,4.07728 v -3.44185 h -5.29517 z m 27.05832,0.47656 c 3.283,0 5.98354,-0.90018 8.36637,-2.80644 v 2.32988 h 5.18926 v -17.89767 c 0,-6.1424 -3.97137,-9.58425 -11.01394,-9.58425 -3.54776,0 -6.98963,0.84723 -11.06691,2.75349 l 1.95922,3.97137 c 3.33595,-1.58856 5.87764,-2.27692 8.36636,-2.27692 4.28909,0 6.56601,1.95921 6.56601,5.77173 v 2.85939 c -2.22398,-1.00608 -4.76565,-1.53559 -7.36028,-1.53559 -6.77782,0 -10.90805,3.12414 -10.90805,8.20751 0,4.87154 4.07728,8.2075 9.90196,8.2075 z m -4.8186,-8.31341 c 0,-2.70054 2.38283,-4.44794 6.24831,-4.44794 2.70052,0 4.9245,0.52951 6.93666,1.69446 v 4.55384 c -1.95921,1.7474 -4.28909,2.54167 -7.14848,2.54167 -3.60072,0 -6.03649,-1.7474 -6.03649,-4.34203 z m 24.46365,7.83685 h 5.29517 v -19.59212 c 1.48265,-2.17103 3.54776,-3.28301 6.08945,-3.28301 3.75957,0 6.19535,2.64758 6.19535,6.83077 v 16.04436 h 5.24221 v -16.94454 c 0,-0.79427 -0.10585,-1.5356 -0.2118,-2.27692 1.53559,-2.43578 3.70661,-3.65367 6.30124,-3.65367 3.81252,0 6.19535,2.64758 6.19535,6.83077 v 16.04436 h 5.29517 v -16.94454 c 0,-6.2483 -4.13023,-10.53738 -10.11378,-10.53738 -3.81252,0 -6.88371,1.5356 -9.10769,4.5009 -1.69445,-2.80645 -4.65974,-4.5009 -8.3134,-4.5009 -3.01825,0 -5.55994,1.05903 -7.5721,3.12414 v -2.59462 h -5.29517 z m 55.01681,0.47656 c 3.283,0 5.98354,-0.90018 8.36637,-2.80644 v 2.32988 h 5.18926 v -17.89767 c 0,-6.1424 -3.97137,-9.58425 -11.01394,-9.58425 -3.54777,0 -6.98962,0.84723 -11.06691,2.75349 l 1.95922,3.97137 c 3.33595,-1.58856 5.87764,-2.27692 8.36636,-2.27692 4.28909,0 6.56601,1.95921 6.56601,5.77173 v 2.85939 c -2.22397,-1.00608 -4.76565,-1.53559 -7.36028,-1.53559 -6.77782,0 -10.90805,3.12414 -10.90805,8.20751 0,4.87154 4.07728,8.2075 9.90196,8.2075 z m -4.8186,-8.31341 c 0,-2.70054 2.38283,-4.44794 6.24831,-4.44794 2.70052,0 4.9245,0.52951 6.93666,1.69446 v 4.55384 c -1.95921,1.7474 -4.28908,2.54167 -7.14848,2.54167 -3.6007,0 -6.03649,-1.7474 -6.03649,-4.34203 z"
           id="text1-8-8"
           aria-label="rama"
           transform="matrix(0.81356383,0,0,0.81356383,19.593859,11.737648)" /><path
           style="font-weight:500;font-size:37.9182px;line-height:1.25;font-family:'Red Hat Display';-inkscape-font-specification:'Red Hat Display Medium';stroke-width:1.32379"
           d="m 381.42026,132.53201 h 5.29517 V 94.459764 l -5.29517,1.006073 z m 20.06872,0.47656 c 3.28299,0 5.98353,-0.90018 8.36635,-2.80644 v 2.32988 h 5.18928 v -17.89767 c 0,-6.1424 -3.97139,-9.58425 -11.01396,-9.58425 -3.54776,0 -6.98962,0.84723 -11.06689,2.75349 l 1.9592,3.97137 c 3.33596,-1.58856 5.87764,-2.27692 8.36637,-2.27692 4.28908,0 6.566,1.95921 6.566,5.77173 v 2.85939 c -2.22396,-1.00608 -4.76565,-1.53559 -7.36028,-1.53559 -6.77782,0 -10.90805,3.12414 -10.90805,8.20751 0,4.87154 4.07728,8.2075 9.90198,8.2075 z m -4.81861,-8.31341 c 0,-2.70054 2.38282,-4.44794 6.2483,-4.44794 2.70054,0 4.9245,0.52951 6.93666,1.69446 v 4.55384 c -1.9592,1.7474 -4.28908,2.54167 -7.14848,2.54167 -3.6007,0 -6.03648,-1.7474 -6.03648,-4.34203 z m 24.46365,7.83685 h 5.29516 v -19.59212 c 1.48265,-2.17103 3.54777,-3.28301 6.08946,-3.28301 3.75956,0 6.19534,2.64758 6.19534,6.83077 v 16.04436 h 5.24222 v -16.94454 c 0,-0.79427 -0.10586,-1.5356 -0.21181,-2.27692 1.53559,-2.43578 3.70662,-3.65367 6.30124,-3.65367 3.81252,0 6.19535,2.64758 6.19535,6.83077 v 16.04436 h 5.29517 v -16.94454 c 0,-6.2483 -4.13023,-10.53738 -10.11376,-10.53738 -3.81254,0 -6.88373,1.5356 -9.1077,4.5009 -1.69445,-2.80645 -4.65975,-4.5009 -8.31341,-4.5009 -3.01825,0 -5.55992,1.05903 -7.5721,3.12414 v -2.59462 h -5.29516 z m 55.0168,0.47656 c 3.28301,0 5.98355,-0.90018 8.36637,-2.80644 v 2.32988 h 5.18926 v -17.89767 c 0,-6.1424 -3.97137,-9.58425 -11.01394,-9.58425 -3.54776,0 -6.98962,0.84723 -11.06691,2.75349 l 1.95922,3.97137 c 3.33595,-1.58856 5.87764,-2.27692 8.36636,-2.27692 4.28909,0 6.56601,1.95921 6.56601,5.77173 v 2.85939 c -2.22396,-1.00608 -4.76565,-1.53559 -7.36028,-1.53559 -6.77782,0 -10.90805,3.12414 -10.90805,8.20751 0,4.87154 4.07728,8.2075 9.90196,8.2075 z m -4.81859,-8.31341 c 0,-2.70054 2.38282,-4.44794 6.2483,-4.44794 2.70052,0 4.9245,0.52951 6.93666,1.69446 v 4.55384 c -1.95921,1.7474 -4.28908,2.54167 -7.14848,2.54167 -3.6007,0 -6.03648,-1.7474 -6.03648,-4.34203 z"
           id="text5-0-3"
           aria-label="lama"
           transform="matrix(0.81356383,0,0,0.81356383,19.593859,11.737648)" /></g><g
         id="g120"
         transform="matrix(0.8681643,0,0,0.8681643,-9.529976,9.6120723)"><path
           class="cls-1"
           d="m 311.51106,63.345361 a 6.001149,6.001149 0 0 1 -1.46222,0.46251 10.485493,10.485493 0 0 1 -2.07987,0.186729 q -3.2031,0 -5.40649,-1.476588 a 9.0950876,9.0950876 0 0 1 -3.28354,-3.860959 8.5578856,8.5578856 0 0 1 -2.91008,-1.177822 8.0091928,8.0091928 0 0 1 -2.23499,-2.17179 10.129273,10.129273 0 0 1 -1.41914,-3.065212 14.16547,14.16547 0 0 1 -0.4941,-3.866705 13.461649,13.461649 0 0 1 0.66072,-4.389543 9.0835965,9.0835965 0 0 1 1.87877,-3.234702 7.9977017,7.9977017 0 0 1 2.87274,-2.010917 10.287274,10.287274 0 0 1 7.42603,0 7.9201377,7.9201377 0 0 1 2.87274,2.010917 9.2530881,9.2530881 0 0 1 1.8644,3.254812 13.363976,13.363976 0 0 1 0.66361,4.357943 q 0,4.067796 -1.72365,6.684861 a 8.0666475,8.0666475 0 0 1 -4.65096,3.447285 3.7144499,3.7144499 0 0 0 1.91037,1.462224 7.578282,7.578282 0 0 0 2.49641,0.422292 6.5498419,6.5498419 0 0 0 1.21804,-0.109165 6.7423154,6.7423154 0 0 0 1.00259,-0.261419 z M 296.8601,48.378397 q 0,3.234703 1.20367,5.021545 a 3.8781958,3.8781958 0 0 0 6.53261,0 q 1.2008,-1.786842 1.2008,-5.021545 0,-3.019247 -1.20367,-4.714162 a 3.9931053,3.9931053 0 0 0 -6.53261,0 q -1.18644,1.692042 -1.18644,4.711289 z m 15.63056,-9.956909 h 4.55904 v 11.243896 q 0,2.95892 0.89342,4.128123 0.89342,1.169204 2.58546,1.169204 1.69492,0 2.61707,-1.172076 0.92215,-1.172077 0.92215,-4.128124 V 38.415743 h 4.37518 V 49.2 q 0,5.053146 -2.01092,7.362827 -2.01092,2.309682 -5.9006,2.29819 -3.91267,0 -5.97817,-2.29819 -2.0655,-2.29819 -2.0655,-7.362827 V 38.421488 Z m 28.0408,15.303075 h -6.12755 l -1.23528,4.777363 h -4.62224 L 334.8262,38.41287 h 5.4582 l 6.2913,20.086182 h -4.81184 z m -0.9279,-3.542086 -0.46251,-1.847171 q -0.43091,-1.508187 -0.83309,-3.203102 -0.40219,-1.694915 -0.8015,-3.269176 h -0.12352 l -0.75266,3.280667 q -0.38495,1.677679 -0.81586,3.188739 l -0.49124,1.850043 z m 9.79891,1.166331 -6.07297,-12.92732 h 4.86355 l 1.78971,4.619363 q 0.43091,1.149095 0.81586,2.203389 0.38495,1.054295 0.8216,2.209136 h 0.12353 q 0.43091,-1.169204 0.84746,-2.23499 0.41654,-1.065786 0.84746,-2.20339 l 1.81557,-4.622235 H 360 l -6.06148,12.956047 v 7.147372 h -4.53318 v -7.147372 z"
           id="path1-5"
           style="fill:#003764;stroke-width:0.287274" /><path
           class="cls-2"
           d="m 281.58288,35.962425 5.99253,12.674519 -5.99253,12.671645 h -5.09911 l 5.98966,-12.671645 -5.98966,-12.674519 z"
           id="path2-8"
           style="fill:#40b4e5;stroke-width:0.287274" /><path
           class="cls-1"
           d="m 276.48377,61.308589 -5.99253,-12.671645 5.99253,-12.674519 h 5.09911 l -5.98966,12.674519 5.98966,12.671645 z"
           id="path3-9"
           style="fill:#003764;stroke-width:0.287274" /><path
           class="cls-2"
           d="m 273.78627,41.664809 -2.69463,-5.702384 h -5.09911 l 5.24562,11.097386 z m -2.54812,8.546395 -5.24562,11.097385 h 5.09911 l 2.69463,-5.702384 z"
           id="path4-6"
           style="fill:#40b4e5;stroke-width:0.287274" /><path
           class="cls-1"
           d="M 265.99253,61.308589 260,48.636944 265.99253,35.962425 h 5.09911 l -5.99253,12.674519 5.99253,12.671645 z"
           id="path5"
           style="fill:#003764;stroke-width:0.287274" /></g><path
         style="fill:#cf3c23;stroke-linecap:round;stroke-linejoin:round"
         d="m 260,73.578125 a 1,1 0 0 0 -1,1 V 150 a 1.0001,1.0001 0 0 0 1,1 h 9.43945 a 1,1 0 0 0 1,-1 1,1 0 0 0 -1,-1 H 261 V 74.578125 a 1,1 0 0 0 -1,-1 z"
         id="path110-9" /><path
         style="fill:#8b8b8b;stroke-linecap:round;stroke-linejoin:round;stroke-dasharray:8, 8"
         d="m 270.24609,103 a 1,1 0 0 0 -1,1 1,1 0 0 0 1,1 h 8 a 1,1 0 0 0 1,-1 1,1 0 0 0 -1,-1 z m 16,0 a 1,1 0 0 0 -1,1 1,1 0 0 0 1,1 h 8 a 1,1 0 0 0 1,-1 1,1 0 0 0 -1,-1 z m 16,0 a 1,1 0 0 0 -1,1 1,1 0 0 0 1,1 h 8 a 1,1 0 0 0 1,-1 1,1 0 0 0 -1,-1 z m 16,0 a 1,1 0 0 0 -1,1 1,1 0 0 0 1,1 h 8 a 1,1 0 0 0 1,-1 1,1 0 0 0 -1,-1 z"
         id="path121" /><g
         id="g10987"
         transform="matrix(0.66526558,0,0,0.66526558,-460.93984,216.30956)"><g
           id="g10985"
           transform="translate(238.41304,-199.74894)"><path
             style="fill:none;fill-rule:evenodd;stroke:#3c6eb4;stroke-width:1.05833;stroke-linecap:butt;stroke-linejoin:miter;stroke-miterlimit:4;stroke-dasharray:none;stroke-opacity:1"
             d="m 963.98321,-1.2653795 h 12.72207"
             id="path10821" /><path
             id="path10823"
             d="m 966.09989,1.3804536 h 12.72207"
             style="fill:none;fill-rule:evenodd;stroke:#3c6eb4;stroke-width:1.05833;stroke-linecap:butt;stroke-linejoin:miter;stroke-miterlimit:4;stroke-dasharray:none;stroke-opacity:1" /><g
             style="stroke-width:0.869167"
             transform="matrix(1.1500458,0,0,1.1510087,-143.9252,0.43908228)"
             id="g10875"><path
               id="path10825"
               d="m 973.10356,3.3983398 c -2.30839,-3.74257021 -1.79145,-7.3525044 -2.88299,-12.510239 -0.59897,-3.1855248 -2.62142,-5.8149598 -5.25403,-6.7776908 -2.17189,-0.757647 -6.68263,-0.759955 -8.59472,0 -2.63261,0.962731 -4.65498,3.592166 -5.25395,6.7776908 -1.09155,5.1577346 -0.57458,8.76766879 -2.88297,12.510239"
               style="fill:#cccccc;fill-opacity:1;fill-rule:evenodd;stroke:#000000;stroke-width:0.689901;stroke-linecap:butt;stroke-linejoin:miter;stroke-miterlimit:4;stroke-dasharray:none;stroke-opacity:1" /><ellipse
               style="opacity:1;fill:#e7e8e9;fill-opacity:1;stroke:none;stroke-width:0.689901;stroke-linecap:square;stroke-linejoin:miter;stroke-miterlimit:4;stroke-dasharray:none;stroke-dashoffset:6;stroke-opacity:1"
               id="ellipse10827"
               cx="966.56354"
               cy="-4.1070371"
               rx="1.1158856"
               ry="1.1746163" /><ellipse
               ry="1.1746163"
               rx="1.1158856"
               cy="-4.1070371"
               cx="955.28723"
               id="ellipse10829"
               style="opacity:1;fill:#e7e8e9;fill-opacity:1;stroke:none;stroke-width:0.689901;stroke-linecap:square;stroke-linejoin:miter;stroke-miterlimit:4;stroke-dasharray:none;stroke-dashoffset:6;stroke-opacity:1" /><g
               id="g10839"
               style="stroke:#a7a9ac;stroke-width:0.518003;stroke-miterlimit:4;stroke-dasharray:none"
               transform="matrix(0.88789899,0,0,0.88789899,108.02196,0.55783395)"><path
                 id="path10831"
                 d="m 956.41893,-5.9814347 -4.67056,1.2514712"
                 style="fill:none;fill-rule:evenodd;stroke:#a7a9ac;stroke-width:0.518003;stroke-linecap:butt;stroke-linejoin:miter;stroke-miterlimit:4;stroke-dasharray:none;stroke-opacity:1" /><path
                 id="path10833"
                 d="m 956.9481,-5.2538306 -4.6966,2.711577"
                 style="fill:none;fill-rule:evenodd;stroke:#a7a9ac;stroke-width:0.518003;stroke-linecap:butt;stroke-linejoin:miter;stroke-miterlimit:4;stroke-dasharray:none;stroke-opacity:1" /><path
                 id="path10835"
                 d="m 957.34497,-4.3939348 -4.7625,4.76249998"
                 style="fill:none;fill-rule:evenodd;stroke:#a7a9ac;stroke-width:0.518003;stroke-linecap:butt;stroke-linejoin:miter;stroke-miterlimit:4;stroke-dasharray:none;stroke-opacity:1" /><path
                 id="path10837"
                 d="m 957.5434,-3.2694556 -2.434,4.21584432"
                 style="fill:none;fill-rule:evenodd;stroke:#a7a9ac;stroke-width:0.518003;stroke-linecap:butt;stroke-linejoin:miter;stroke-miterlimit:4;stroke-dasharray:none;stroke-opacity:1" /></g><g
               transform="matrix(-0.88789899,0,0,0.88789899,1814.1581,0.55783389)"
               style="stroke:#a7a9ac;stroke-width:0.518003;stroke-miterlimit:4;stroke-dasharray:none"
               id="g10849"><path
                 style="fill:none;fill-rule:evenodd;stroke:#a7a9ac;stroke-width:0.518003;stroke-linecap:butt;stroke-linejoin:miter;stroke-miterlimit:4;stroke-dasharray:none;stroke-opacity:1"
                 d="m 956.41893,-5.9814347 -4.67056,1.2514712"
                 id="path10841" /><path
                 style="fill:none;fill-rule:evenodd;stroke:#a7a9ac;stroke-width:0.518003;stroke-linecap:butt;stroke-linejoin:miter;stroke-miterlimit:4;stroke-dasharray:none;stroke-opacity:1"
                 d="m 956.9481,-5.2538306 -4.6966,2.711577"
                 id="path10843" /><path
                 style="fill:none;fill-rule:evenodd;stroke:#a7a9ac;stroke-width:0.518003;stroke-linecap:butt;stroke-linejoin:miter;stroke-miterlimit:4;stroke-dasharray:none;stroke-opacity:1"
                 d="m 957.34497,-4.3939348 -4.7625,4.76249998"
                 id="path10845" /><path
                 style="fill:none;fill-rule:evenodd;stroke:#a7a9ac;stroke-width:0.518003;stroke-linecap:butt;stroke-linejoin:miter;stroke-miterlimit:4;stroke-dasharray:none;stroke-opacity:1"
                 d="m 957.5434,-3.2694556 -2.434,4.21584432"
                 id="path10847" /></g><ellipse
               style="opacity:1;fill:#ffffff;fill-opacity:1;stroke:#60605b;stroke-width:0.689901;stroke-linecap:square;stroke-linejoin:miter;stroke-miterlimit:4;stroke-dasharray:none;stroke-dashoffset:6;stroke-opacity:1"
               id="ellipse10851"
               cx="961.04285"
               cy="-4.9292688"
               rx="3.5825801"
               ry="3.4063873" /><ellipse
               transform="scale(-1,1)"
               style="fill:#000000;fill-opacity:1;stroke:#892ca0;stroke-width:0.689901;stroke-linecap:square;stroke-linejoin:miter;stroke-miterlimit:4;stroke-dasharray:none;stroke-dashoffset:0;stroke-opacity:1"
               id="ellipse10853"
               cx="-966.52734"
               cy="-7.8406329"
               rx="1.7252614"
               ry="1.7690334" /><path
               style="fill:none;fill-opacity:1;stroke:#000000;stroke-width:0.689901;stroke-linecap:square;stroke-linejoin:miter;stroke-miterlimit:4;stroke-dasharray:none;stroke-dashoffset:0;stroke-opacity:1"
               d="m 968.07427,-11.544209 c -0.34474,-0.448317 -0.89334,-0.733231 -1.45836,-0.757402 -0.53344,-0.02282 -1.07281,0.185834 -1.45201,0.561706"
               id="path10855" /><g
               id="g10863"
               style="stroke-width:0.777004;stroke-miterlimit:4;stroke-dasharray:none"
               transform="matrix(0.88789899,0,0,0.88789899,106.61242,0.08798743)"><g
                 id="g10861"
                 transform="translate(0,-0.52916667)"
                 style="stroke-width:0.777004"><path
                   style="fill:none;fill-rule:evenodd;stroke:#000000;stroke-width:0.777004;stroke-linecap:butt;stroke-linejoin:miter;stroke-miterlimit:4;stroke-dasharray:none;stroke-opacity:1"
                   d="m 962.30591,-5.7829972 0.0993,1.9843749 c 0,0 1.58751,1.4221355 2.51355,-0.033073 0,0 -0.0993,-0.8268214 -0.16541,-1.0914047"
                   id="path10857" /><path
                   id="path10859"
                   d="m 962.28751,-5.7829972 -0.0993,1.9843749 c 0,0 -1.58751,1.4221355 -2.51355,-0.033073 0,0 0.0993,-0.8268214 0.16541,-1.0914047"
                   style="fill:none;fill-rule:evenodd;stroke:#000000;stroke-width:0.777004;stroke-linecap:butt;stroke-linejoin:miter;stroke-miterlimit:4;stroke-dasharray:none;stroke-opacity:1" /></g></g><path
               id="path10865"
               style="fill:#808080;fill-opacity:1;stroke:#000000;stroke-width:0.689901;stroke-linecap:square;stroke-linejoin:miter;stroke-miterlimit:4;stroke-dasharray:none;stroke-dashoffset:0;stroke-opacity:1"
               d="m 962.57174,-5.5436767 c -0.1202,-0.3110186 -0.1202,-0.9330691 -0.48062,-0.9330691 -0.36047,0 -0.69372,-0.2332673 -1.04826,-0.2332673 -0.35456,0 -0.68781,0.2332673 -1.04828,0.2332673 -0.36046,0 -0.36046,0.6220505 -0.48061,0.9330691 -0.1202,0.3110253 1.52889,1.3218472 1.52889,1.3218472 0,0 1.64903,-1.0108219 1.52888,-1.3218472 z" /><ellipse
               ry="1.7690334"
               rx="1.7252614"
               cy="-7.8406329"
               cx="955.36047"
               id="ellipse10867"
               style="fill:#000000;fill-opacity:1;stroke:#892ca0;stroke-width:0.689901;stroke-linecap:square;stroke-linejoin:miter;stroke-miterlimit:4;stroke-dasharray:none;stroke-dashoffset:0;stroke-opacity:1" /><ellipse
               style="fill:#ffffff;fill-opacity:1;stroke:none;stroke-width:0.689901;stroke-linecap:square;stroke-linejoin:miter;stroke-miterlimit:4;stroke-dasharray:none;stroke-dashoffset:0;stroke-opacity:1"
               id="ellipse10869"
               cx="954.78467"
               cy="-8.3384542"
               rx="0.8483994"
               ry="0.88143349" /><path
               id="path10871"
               d="m 953.81353,-11.544209 c 0.34474,-0.448315 0.89333,-0.73323 1.45835,-0.757402 0.53344,-0.02282 1.07281,0.185833 1.45201,0.561706"
               style="fill:none;fill-opacity:1;stroke:#000000;stroke-width:0.689901;stroke-linecap:square;stroke-linejoin:miter;stroke-miterlimit:4;stroke-dasharray:none;stroke-dashoffset:0;stroke-opacity:1" /><ellipse
               ry="0.88143349"
               rx="0.8483994"
               cy="-8.3384542"
               cx="965.94666"
               id="ellipse10873"
               style="fill:#ffffff;fill-opacity:1;stroke:none;stroke-width:0.689901;stroke-linecap:square;stroke-linejoin:miter;stroke-miterlimit:4;stroke-dasharray:none;stroke-dashoffset:0;stroke-opacity:1" /></g><path
             id="path10877"
             d="m 948.21183,4.2931494 h 32.92765"
             style="fill:none;fill-rule:evenodd;stroke:#3c6eb4;stroke-width:1.05833;stroke-linecap:butt;stroke-linejoin:miter;stroke-miterlimit:4;stroke-dasharray:none;stroke-opacity:1" /><g
             style="stroke-width:1.20412"
             transform="matrix(0.83048493,0,0,0.83048493,164.55035,-1.4237955)"
             clip-path="url(#clipPath81511)"
             id="g10929"><path
               id="path10879"
               d="m 958.31594,13.737399 c -0.26199,-1.782196 -0.38924,-3.720848 -0.8727,-6.0017375 -0.53058,-2.8174518 -2.32212,-5.1430676 -4.65415,-5.9945597 -1.92393,-0.6701043 -5.91966,-0.6721461 -7.61343,0 -2.33204,0.8514921 -4.1235,3.1771079 -4.65409,5.9945597 -0.48346,2.2808895 -0.61071,4.2195415 -0.87269,6.0017375"
               style="fill:#cccccc;fill-opacity:1;fill-rule:evenodd;stroke:#000000;stroke-width:0.955767;stroke-linecap:butt;stroke-linejoin:miter;stroke-miterlimit:4;stroke-dasharray:none;stroke-opacity:1" /><ellipse
               style="opacity:1;fill:#e7e8e9;fill-opacity:1;stroke:none;stroke-width:0.955767;stroke-linecap:square;stroke-linejoin:miter;stroke-miterlimit:4;stroke-dasharray:none;stroke-dashoffset:6;stroke-opacity:1"
               id="ellipse10881"
               cx="954.20367"
               cy="12.16224"
               rx="0.98848081"
               ry="1.0388949" /><ellipse
               ry="1.0388949"
               rx="0.98848081"
               cy="12.16224"
               cx="944.21478"
               id="ellipse10883"
               style="opacity:1;fill:#e7e8e9;fill-opacity:1;stroke:none;stroke-width:0.955767;stroke-linecap:square;stroke-linejoin:miter;stroke-miterlimit:4;stroke-dasharray:none;stroke-dashoffset:6;stroke-opacity:1" /><g
               id="g10893"
               style="stroke:#a7a9ac;stroke-width:0.810747;stroke-miterlimit:4;stroke-dasharray:none"
               transform="matrix(0.7865243,0,0,0.7853064,193.68501,16.288101)"><path
                 id="path10885"
                 d="m 956.41893,-5.9814347 -4.67056,1.2514712"
                 style="fill:none;fill-rule:evenodd;stroke:#a7a9ac;stroke-width:0.810747;stroke-linecap:butt;stroke-linejoin:miter;stroke-miterlimit:4;stroke-dasharray:none;stroke-opacity:1" /><path
                 id="path10887"
                 d="m 956.9481,-5.2538306 -4.6966,2.711577"
                 style="fill:none;fill-rule:evenodd;stroke:#a7a9ac;stroke-width:0.810747;stroke-linecap:butt;stroke-linejoin:miter;stroke-miterlimit:4;stroke-dasharray:none;stroke-opacity:1" /><path
                 id="path10889"
                 d="m 957.34497,-4.3939348 -4.7625,4.76249998"
                 style="fill:none;fill-rule:evenodd;stroke:#a7a9ac;stroke-width:0.810747;stroke-linecap:butt;stroke-linejoin:miter;stroke-miterlimit:4;stroke-dasharray:none;stroke-opacity:1" /><path
                 id="path10891"
                 d="m 957.5434,-3.2694556 -2.434,4.21584432"
                 style="fill:none;fill-rule:evenodd;stroke:#a7a9ac;stroke-width:0.810747;stroke-linecap:butt;stroke-linejoin:miter;stroke-miterlimit:4;stroke-dasharray:none;stroke-opacity:1" /></g><g
               transform="matrix(-0.7865243,0,0,0.7853064,1705.0252,16.288101)"
               style="stroke:#a7a9ac;stroke-width:0.810747;stroke-miterlimit:4;stroke-dasharray:none"
               id="g10903"><path
                 style="fill:none;fill-rule:evenodd;stroke:#a7a9ac;stroke-width:0.810747;stroke-linecap:butt;stroke-linejoin:miter;stroke-miterlimit:4;stroke-dasharray:none;stroke-opacity:1"
                 d="m 956.41893,-5.9814347 -4.67056,1.2514712"
                 id="path10895" /><path
                 style="fill:none;fill-rule:evenodd;stroke:#a7a9ac;stroke-width:0.810747;stroke-linecap:butt;stroke-linejoin:miter;stroke-miterlimit:4;stroke-dasharray:none;stroke-opacity:1"
                 d="m 956.9481,-5.2538306 -4.6966,2.711577"
                 id="path10897" /><path
                 style="fill:none;fill-rule:evenodd;stroke:#a7a9ac;stroke-width:0.810747;stroke-linecap:butt;stroke-linejoin:miter;stroke-miterlimit:4;stroke-dasharray:none;stroke-opacity:1"
                 d="m 957.34497,-4.3939348 -4.7625,4.76249998"
                 id="path10899" /><path
                 style="fill:none;fill-rule:evenodd;stroke:#a7a9ac;stroke-width:0.810747;stroke-linecap:butt;stroke-linejoin:miter;stroke-miterlimit:4;stroke-dasharray:none;stroke-opacity:1"
                 d="m 957.5434,-3.2694556 -2.434,4.21584432"
                 id="path10901" /></g><ellipse
               style="opacity:1;fill:#ffffff;fill-opacity:1;stroke:#60605b;stroke-width:0.955767;stroke-linecap:square;stroke-linejoin:miter;stroke-miterlimit:4;stroke-dasharray:none;stroke-dashoffset:6;stroke-opacity:1"
               id="ellipse10905"
               cx="949.31329"
               cy="11.435012"
               rx="3.1735437"
               ry="3.0127952" /><ellipse
               transform="scale(-1,1)"
               style="fill:#000000;fill-opacity:1;stroke:#892ca0;stroke-width:0.955767;stroke-linecap:square;stroke-linejoin:miter;stroke-miterlimit:4;stroke-dasharray:none;stroke-dashoffset:0;stroke-opacity:1"
               id="ellipse10907"
               cx="-954.17163"
               cy="8.8600426"
               rx="1.528282"
               ry="1.5646298" /><path
               style="fill:none;fill-opacity:1;stroke:#000000;stroke-width:0.955767;stroke-linecap:square;stroke-linejoin:miter;stroke-miterlimit:4;stroke-dasharray:none;stroke-dashoffset:0;stroke-opacity:1"
               d="m 955.54199,5.5843938 c -0.30575,-0.3965787 -0.79155,-0.6484892 -1.29185,-0.6698876 -0.4724,-0.020205 -0.95006,0.1642901 -1.28623,0.4968037"
               id="path10909" /><g
               id="g10917"
               style="stroke-width:1.21612;stroke-miterlimit:4;stroke-dasharray:none"
               transform="matrix(0.7865243,0,0,0.7853064,192.4364,15.872544)"><g
                 style="stroke-width:1.21612"
                 id="g10915"
                 transform="translate(0,-0.52916667)"><path
                   style="fill:none;fill-rule:evenodd;stroke:#000000;stroke-width:1.21612;stroke-linecap:butt;stroke-linejoin:miter;stroke-miterlimit:4;stroke-dasharray:none;stroke-opacity:1"
                   d="m 962.30591,-5.7829972 0.0993,1.9843749 c 0,0 1.58751,1.4221355 2.51355,-0.033073 0,0 -0.0993,-0.8268214 -0.16541,-1.0914047"
                   id="path10911" /><path
                   id="path10913"
                   d="m 962.28751,-5.7829972 -0.0993,1.9843749 c 0,0 -1.58751,1.4221355 -2.51355,-0.033073 0,0 0.0993,-0.8268214 0.16541,-1.0914047"
                   style="fill:none;fill-rule:evenodd;stroke:#000000;stroke-width:1.21612;stroke-linecap:butt;stroke-linejoin:miter;stroke-miterlimit:4;stroke-dasharray:none;stroke-opacity:1" /></g></g><path
               id="path10919"
               style="fill:#808080;fill-opacity:1;stroke:#000000;stroke-width:0.955767;stroke-linecap:square;stroke-linejoin:miter;stroke-miterlimit:4;stroke-dasharray:none;stroke-dashoffset:0;stroke-opacity:1"
               d="m 950.66771,10.891591 c -0.10648,-0.275082 -0.10648,-0.825257 -0.42575,-0.825257 -0.31931,0 -0.61451,-0.2063147 -0.92858,-0.2063147 -0.31407,0 -0.60928,0.2063147 -0.92858,0.2063147 -0.31932,0 -0.31932,0.550175 -0.42575,0.825257 -0.10647,0.275088 1.35433,1.169114 1.35433,1.169114 0,0 1.46076,-0.894026 1.35433,-1.169114 z" /><ellipse
               ry="1.5646298"
               rx="1.528282"
               cy="8.8600426"
               cx="944.27972"
               id="ellipse10921"
               style="fill:#000000;fill-opacity:1;stroke:#892ca0;stroke-width:0.955767;stroke-linecap:square;stroke-linejoin:miter;stroke-miterlimit:4;stroke-dasharray:none;stroke-dashoffset:0;stroke-opacity:1" /><ellipse
               style="fill:#ffffff;fill-opacity:1;stroke:none;stroke-width:0.955767;stroke-linecap:square;stroke-linejoin:miter;stroke-miterlimit:4;stroke-dasharray:none;stroke-dashoffset:0;stroke-opacity:1"
               id="ellipse10923"
               cx="943.76965"
               cy="8.4197426"
               rx="0.75153452"
               ry="0.77958798" /><path
               id="path10925"
               d="m 942.90945,5.5843938 c 0.30575,-0.3965787 0.79155,-0.6484892 1.29185,-0.6698876 0.4724,-0.020205 0.95006,0.1642901 1.28623,0.4968037"
               style="fill:none;fill-opacity:1;stroke:#000000;stroke-width:0.955767;stroke-linecap:square;stroke-linejoin:miter;stroke-miterlimit:4;stroke-dasharray:none;stroke-dashoffset:0;stroke-opacity:1" /><ellipse
               ry="0.77958798"
               rx="0.75153452"
               cy="8.5291576"
               cx="953.76178"
               id="ellipse10927"
               style="fill:#ffffff;fill-opacity:1;stroke:none;stroke-width:0.955767;stroke-linecap:square;stroke-linejoin:miter;stroke-miterlimit:4;stroke-dasharray:none;stroke-dashoffset:0;stroke-opacity:1" /></g><path
             style="opacity:1;fill:none;fill-opacity:1;stroke:#892ca0;stroke-width:1.05833;stroke-linecap:round;stroke-linejoin:round;stroke-miterlimit:4;stroke-dasharray:none;stroke-opacity:1"
             d="m 961.97165,23.28467 -19.29817,-9.23285 -4.82036,-20.8616002 13.2871,-16.7806158 21.38926,-0.06408 13.38485,16.7011458 -4.69887,20.8897002 z"
             id="path10931" /><path
             style="fill:none;fill-rule:evenodd;stroke:#3c6eb4;stroke-width:1.05833;stroke-linecap:butt;stroke-linejoin:miter;stroke-miterlimit:4;stroke-dasharray:none;stroke-opacity:1"
             d="m 943.44933,8.5264827 h 19.83144"
             id="path10933" /><path
             id="path10935"
             d="m 952.87074,12.492952 h 27.50208"
             style="fill:none;fill-rule:evenodd;stroke:#3c6eb4;stroke-width:1.05833;stroke-linecap:butt;stroke-linejoin:miter;stroke-miterlimit:4;stroke-dasharray:none;stroke-opacity:1" /><g
             transform="translate(0.78045403,0.88370984)"
             id="g10979"><path
               style="fill:#cccccc;fill-opacity:1;fill-rule:evenodd;stroke:#000000;stroke-width:0.79375;stroke-linecap:butt;stroke-linejoin:miter;stroke-miterlimit:4;stroke-dasharray:none;stroke-opacity:1"
               d="m 977.46866,11.110796 c -0.23262,-1.5824091 -0.34561,-3.3037374 -0.77487,-5.3289381 -0.4711,-2.5016132 -2.06181,-4.566525 -4.13242,-5.32256411 -1.70825,-0.59498494 -5.25606,-0.59679785 -6.75995,0 -2.07062,0.75603911 -3.66125,2.82095091 -4.13236,5.32256411 -0.42927,2.0252007 -0.54225,3.746529 -0.77486,5.3289381"
               id="path10937" /><ellipse
               ry="0.92243373"
               rx="0.87767112"
               cy="9.7122078"
               cx="973.81744"
               id="ellipse10939"
               style="opacity:1;fill:#e7e8e9;fill-opacity:1;stroke:none;stroke-width:0.79375;stroke-linecap:square;stroke-linejoin:miter;stroke-miterlimit:4;stroke-dasharray:none;stroke-dashoffset:6;stroke-opacity:1" /><ellipse
               style="opacity:1;fill:#e7e8e9;fill-opacity:1;stroke:none;stroke-width:0.79375;stroke-linecap:square;stroke-linejoin:miter;stroke-miterlimit:4;stroke-dasharray:none;stroke-dashoffset:6;stroke-opacity:1"
               id="ellipse10941"
               cx="964.9483"
               cy="9.7122078"
               rx="0.87767112"
               ry="0.92243373" /><g
               transform="matrix(0.69835413,0,0,0.69727276,299.02348,11.966021)"
               style="stroke:#a7a9ac;stroke-width:0.758321;stroke-miterlimit:4;stroke-dasharray:none"
               id="g10947"><path
                 style="fill:none;fill-rule:evenodd;stroke:#a7a9ac;stroke-width:0.758321;stroke-linecap:butt;stroke-linejoin:miter;stroke-miterlimit:4;stroke-dasharray:none;stroke-opacity:1"
                 d="m 955.74614,-3.9599306 -4.67056,1.2514712"
                 id="path10943" /><path
                 style="fill:none;fill-rule:evenodd;stroke:#a7a9ac;stroke-width:0.758321;stroke-linecap:butt;stroke-linejoin:miter;stroke-miterlimit:4;stroke-dasharray:none;stroke-opacity:1"
                 d="m 956.27531,-3.2323265 -4.6966,2.71157695"
                 id="path10945" /></g><g
               id="g10953"
               style="stroke:#a7a9ac;stroke-width:0.758321;stroke-miterlimit:4;stroke-dasharray:none"
               transform="matrix(-0.69835413,0,0,0.69727276,1640.4712,13.375562)"><path
                 id="path10949"
                 d="m 956.41893,-5.9814347 -4.67056,1.2514712"
                 style="fill:none;fill-rule:evenodd;stroke:#a7a9ac;stroke-width:0.758321;stroke-linecap:butt;stroke-linejoin:miter;stroke-miterlimit:4;stroke-dasharray:none;stroke-opacity:1" /><path
                 id="path10951"
                 d="m 956.9481,-5.2538306 -4.6966,2.711577"
                 style="fill:none;fill-rule:evenodd;stroke:#a7a9ac;stroke-width:0.758321;stroke-linecap:butt;stroke-linejoin:miter;stroke-miterlimit:4;stroke-dasharray:none;stroke-opacity:1" /></g><ellipse
               ry="2.6750579"
               rx="2.8177862"
               cy="9.0665035"
               cx="969.47528"
               id="ellipse10955"
               style="opacity:1;fill:#ffffff;fill-opacity:1;stroke:#60605b;stroke-width:0.79375;stroke-linecap:square;stroke-linejoin:miter;stroke-miterlimit:4;stroke-dasharray:none;stroke-dashoffset:6;stroke-opacity:1" /><ellipse
               ry="1.3892332"
               rx="1.3569601"
               cy="6.7801905"
               cx="-973.789"
               id="ellipse10957"
               style="fill:#000000;fill-opacity:1;stroke:#892ca0;stroke-width:0.79375;stroke-linecap:square;stroke-linejoin:miter;stroke-miterlimit:4;stroke-dasharray:none;stroke-dashoffset:0;stroke-opacity:1"
               transform="scale(-1,1)" /><path
               id="path10959"
               d="m 975.00567,3.8717489 c -0.27147,-0.3521218 -0.70281,-0.575793 -1.14703,-0.5947926 -0.41945,-0.01794 -0.84356,0.1458731 -1.14204,0.4411116"
               style="fill:none;fill-opacity:1;stroke:#000000;stroke-width:0.79375;stroke-linecap:square;stroke-linejoin:miter;stroke-miterlimit:4;stroke-dasharray:none;stroke-dashoffset:0;stroke-opacity:1" /><g
               transform="matrix(0.69835413,0,0,0.69727276,297.44499,13.006589)"
               style="stroke-width:1.13748;stroke-miterlimit:4;stroke-dasharray:none"
               id="g10967"><g
                 transform="translate(0,-0.52916667)"
                 id="g10965"
                 style="stroke-width:1.13748"><path
                   id="path10961"
                   d="m 962.30591,-5.7829972 0.0993,1.9843749 c 0,0 1.58751,1.4221355 2.51355,-0.033073 0,0 -0.0993,-0.8268214 -0.16541,-1.0914047"
                   style="fill:none;fill-rule:evenodd;stroke:#000000;stroke-width:1.13748;stroke-linecap:butt;stroke-linejoin:miter;stroke-miterlimit:4;stroke-dasharray:none;stroke-opacity:1" /><path
                   style="fill:none;fill-rule:evenodd;stroke:#000000;stroke-width:1.13748;stroke-linecap:butt;stroke-linejoin:miter;stroke-miterlimit:4;stroke-dasharray:none;stroke-opacity:1"
                   d="m 962.28751,-5.7829972 -0.0993,1.9843749 c 0,0 -1.58751,1.4221355 -2.51355,-0.033073 0,0 0.0993,-0.8268214 0.16541,-1.0914047"
                   id="path10963" /></g></g><path
               d="m 970.6778,8.5840058 c -0.0945,-0.2442451 -0.0945,-0.7327449 -0.37802,-0.7327449 -0.28351,0 -0.54562,-0.1831865 -0.82448,-0.1831865 -0.27887,0 -0.54098,0.1831865 -0.82449,0.1831865 -0.28352,0 -0.28352,0.4884998 -0.37802,0.7327449 -0.0945,0.2442506 1.20251,1.0380563 1.20251,1.0380563 0,0 1.297,-0.7938057 1.2025,-1.0380563 z"
               style="fill:#808080;fill-opacity:1;stroke:#000000;stroke-width:0.79375;stroke-linecap:square;stroke-linejoin:miter;stroke-miterlimit:4;stroke-dasharray:none;stroke-dashoffset:0;stroke-opacity:1"
               id="path10969" /><ellipse
               style="fill:#000000;fill-opacity:1;stroke:#892ca0;stroke-width:0.79375;stroke-linecap:square;stroke-linejoin:miter;stroke-miterlimit:4;stroke-dasharray:none;stroke-dashoffset:0;stroke-opacity:1"
               id="ellipse10971"
               cx="965.00598"
               cy="6.7801905"
               rx="1.3569601"
               ry="1.3892332" /><ellipse
               ry="0.69219536"
               rx="0.66728675"
               cy="6.3892479"
               cx="964.5531"
               id="ellipse10973"
               style="fill:#ffffff;fill-opacity:1;stroke:none;stroke-width:0.79375;stroke-linecap:square;stroke-linejoin:miter;stroke-miterlimit:4;stroke-dasharray:none;stroke-dashoffset:0;stroke-opacity:1" /><path
               style="fill:none;fill-opacity:1;stroke:#000000;stroke-width:0.79375;stroke-linecap:square;stroke-linejoin:miter;stroke-miterlimit:4;stroke-dasharray:none;stroke-dashoffset:0;stroke-opacity:1"
               d="m 963.78925,3.8717489 c 0.27148,-0.3521208 0.70281,-0.5757916 1.14703,-0.5947926 0.41945,-0.017942 0.84357,0.1458717 1.14205,0.4411116"
               id="path10975" /><ellipse
               style="fill:#ffffff;fill-opacity:1;stroke:none;stroke-width:0.79375;stroke-linecap:square;stroke-linejoin:miter;stroke-miterlimit:4;stroke-dasharray:none;stroke-dashoffset:0;stroke-opacity:1"
               id="ellipse10977"
               cx="973.4754"
               cy="6.4801154"
               rx="0.66728675"
               ry="0.69219536" /></g><path
             style="fill:none;fill-rule:evenodd;stroke:#3c6eb4;stroke-width:1.05833;stroke-linecap:butt;stroke-linejoin:miter;stroke-miterlimit:4;stroke-dasharray:none;stroke-opacity:1"
             d="m 950.75405,15.138787 h 12.72207"
             id="path10981" /><path
             id="path10983"
             d="m 958.16237,17.784622 h 10.477"
             style="fill:none;fill-rule:evenodd;stroke:#3c6eb4;stroke-width:1.05833;stroke-linecap:butt;stroke-linejoin:miter;stroke-miterlimit:4;stroke-dasharray:none;stroke-opacity:1" /></g></g><path
         fill="currentColor"
         d="m 356.97403,117.25618 c -0.10974,-0.0731 -1.02431,-0.78653 -2.99976,-0.78653 -0.51216,0 -1.02431,0.0549 -1.53647,0.14633 -0.38412,-2.56078 -2.52419,-3.85945 -2.61565,-3.91433 l -0.53045,-0.31095 -0.32924,0.49386 c -0.43899,0.65849 -0.78653,1.40843 -0.93285,2.17666 -0.36583,1.46331 -0.14633,2.85344 0.6036,4.04238 -0.89626,0.51216 -2.35956,0.64019 -2.67052,0.64019 h -24.0896 c -0.62189,0 -1.13405,0.51216 -1.13405,1.15235 0,2.1035 0.32924,4.20699 1.06089,6.18245 0.82311,2.17666 2.06692,3.78628 3.65826,4.77402 1.79254,1.09748 4.73744,1.71937 8.08473,1.71937 1.44501,0 2.9449,-0.12803 4.42649,-0.4024 2.04862,-0.36582 4.02408,-1.07918 5.83491,-2.12179 a 15.181749,15.181749 0 0 0 3.96921,-3.27414 c 1.92058,-2.14007 3.05464,-4.57281 3.87775,-6.67631 h 0.34753 c 2.0852,0 3.38388,-0.84139 4.09724,-1.55475 0.47558,-0.43899 0.82311,-0.96944 1.07918,-1.59134 l 0.14633,-0.43899 z m -32.85111,1.81083 h 3.21927 c 0.14633,0 0.29266,-0.12803 0.29266,-0.29266 v -2.89002 c 0,-0.14633 -0.12804,-0.29266 -0.29266,-0.29266 h -3.21927 c -0.16461,0 -0.29266,0.12804 -0.29266,0.29266 v 2.89002 c 0.0183,0.16463 0.12805,0.29266 0.29266,0.29266 m 4.44478,0 h 3.21927 c 0.14633,0 0.29266,-0.12803 0.29266,-0.29266 v -2.89002 c 0,-0.14633 -0.12805,-0.29266 -0.29266,-0.29266 h -3.21927 c -0.16462,0 -0.29266,0.12804 -0.29266,0.29266 v 2.89002 c 0.0183,0.16463 0.12804,0.29266 0.29266,0.29266 m 4.51795,0 h 3.20097 c 0.18291,0 0.31094,-0.12803 0.31094,-0.29266 v -2.89002 c 0,-0.14633 -0.10974,-0.29266 -0.31094,-0.29266 h -3.20097 c -0.14633,0 -0.27438,0.12804 -0.27438,0.29266 v 2.89002 c 0,0.16463 0.10975,0.29266 0.27438,0.29266 m 4.46306,0 h 3.23755 c 0.14633,0 0.27438,-0.12803 0.27438,-0.29266 v -2.89002 c 0,-0.14633 -0.10976,-0.29266 -0.27438,-0.29266 h -3.23755 c -0.14633,0 -0.27437,0.12804 -0.27437,0.29266 v 2.89002 c 0,0.16463 0.12804,0.29266 0.27437,0.29266 m -8.98101,-4.09724 h 3.21927 c 0.14633,0 0.29266,-0.16462 0.29266,-0.32924 v -2.87173 c 0,-0.16462 -0.12805,-0.29266 -0.29266,-0.29266 h -3.21927 c -0.16462,0 -0.29266,0.10974 -0.29266,0.29266 v 2.87173 c 0.0183,0.16462 0.12804,0.32924 0.29266,0.32924 m 4.51795,0 h 3.20097 c 0.18291,0 0.31094,-0.16462 0.31094,-0.32924 v -2.87173 c 0,-0.16462 -0.10974,-0.29266 -0.31094,-0.29266 h -3.20097 c -0.14633,0 -0.27438,0.10974 -0.27438,0.29266 v 2.87173 c 0,0.16462 0.10975,0.32924 0.27438,0.32924 m 4.46306,0 h 3.23755 c 0.14633,0 0.27438,-0.16462 0.27438,-0.32924 v -2.87173 c 0,-0.16462 -0.12805,-0.29266 -0.27438,-0.29266 h -3.23755 c -0.14633,0 -0.27437,0.10974 -0.27437,0.29266 v 2.87173 c 0,0.16462 0.12804,0.32924 0.27437,0.32924 m 0,-4.17041 h 3.23755 c 0.14633,0 0.27438,-0.12804 0.27438,-0.29266 v -2.85343 c 0,-0.18292 -0.12805,-0.31095 -0.27438,-0.31095 h -3.23755 c -0.14633,0 -0.27437,0.10974 -0.27437,0.31095 v 2.85343 c 0,0.14633 0.12804,0.29266 0.27437,0.29266 m 4.49965,8.26765 h 3.21927 c 0.16461,0 0.29266,-0.12803 0.29266,-0.29266 v -2.89002 c 0,-0.14633 -0.12805,-0.29266 -0.29266,-0.29266 h -3.21927 c -0.14633,0 -0.27437,0.12804 -0.27437,0.29266 v 2.89002 c 0,0.16463 0.12804,0.29266 0.27437,0.29266"
         id="path1"
         style="fill:#1d63ed;fill-opacity:1;stroke-width:1.82913" /><path
         style="fill:#cf3c23;fill-opacity:1;stroke:none;stroke-width:2.00003;stroke-linecap:round;stroke-linejoin:round;stroke-dasharray:none;stroke-opacity:1"
         d="m 270.80876,149.29297 -5.25195,-5.25195 a 1.000015,1.000015 0 0 0 -1.41406,0 1.000015,1.000015 0 0 0 0,1.41406 l 4.54492,4.54492 -4.54492,4.54492 a 1.000015,1.000015 0 0 0 0,1.41406 1.000015,1.000015 0 0 0 1.41406,0 l 5.25195,-5.25195 a 1.000115,1.000115 0 0 0 0,-1.41406 z"
         id="path11" /><path
         style="fill:#8b8b8b;fill-opacity:1;stroke:none;stroke-width:2.00003;stroke-linecap:round;stroke-linejoin:round;stroke-dasharray:none;stroke-opacity:1"
         d="m 268.87769,104.70703 5.25195,5.25195 a 1.000015,1.000015 0 0 0 1.41406,0 1.000015,1.000015 0 0 0 0,-1.41406 L 270.99878,104 275.5437,99.455076 a 1.000015,1.000015 0 0 0 0,-1.41406 1.000015,1.000015 0 0 0 -1.41406,0 l -5.25195,5.251954 a 1.000115,1.000115 0 0 0 0,1.41406 z"
         id="path11-2" /></g></g></svg>
