<?xml version="1.0" encoding="UTF-8" standalone="no"?>
<!-- Created with Inkscape (http://www.inkscape.org/) -->

<svg
   width="32"
   height="32"
   viewBox="0 0 8.4666667 8.4666667"
   version="1.1"
   id="svg1"
   xml:space="preserve"
   sodipodi:docname="ramalama-favicon.svg"
   inkscape:version="1.4 (e7c3feb1, 2024-10-09)"
   inkscape:export-filename="../PNG/ramalama-logo-full-vertical-added-bg.png"
   inkscape:export-xdpi="96"
   inkscape:export-ydpi="96"
   xmlns:inkscape="http://www.inkscape.org/namespaces/inkscape"
   xmlns:sodipodi="http://sodipodi.sourceforge.net/DTD/sodipodi-0.dtd"
   xmlns:xlink="http://www.w3.org/1999/xlink"
   xmlns="http://www.w3.org/2000/svg"
   xmlns:svg="http://www.w3.org/2000/svg"><sodipodi:namedview
     id="namedview1"
     pagecolor="#ffffff"
     bordercolor="#000000"
     borderopacity="0.25"
     inkscape:showpageshadow="2"
     inkscape:pageopacity="0.0"
     inkscape:pagecheckerboard="0"
     inkscape:deskcolor="#d1d1d1"
     inkscape:document-units="mm"
     inkscape:zoom="18.72027"
     inkscape:cx="23.1033"
     inkscape:cy="22.622537"
     inkscape:window-width="2256"
     inkscape:window-height="1296"
     inkscape:window-x="0"
     inkscape:window-y="25"
     inkscape:window-maximized="0"
     inkscape:current-layer="g2"
     showguides="true"><sodipodi:guide
       position="163.40365,59.918079"
       orientation="0,-1"
       id="guide2"
       inkscape:locked="false" /><sodipodi:guide
       position="120.67873,168.19005"
       orientation="0,-1"
       id="guide3"
       inkscape:locked="false" /><sodipodi:guide
       position="127.42125,81.52088"
       orientation="0,-1"
       id="guide4"
       inkscape:locked="false" /><sodipodi:guide
       position="105.01807,139.09284"
       orientation="1,0"
       id="guide5"
       inkscape:locked="false" /></sodipodi:namedview><defs
     id="defs1"><linearGradient
       id="linearGradient2"
       inkscape:collect="always"><stop
         style="stop-color:#cf3c23;stop-opacity:1;"
         offset="0.34546715"
         id="stop1" /><stop
         style="stop-color:#bfbfbf;stop-opacity:0.50216103;"
         offset="1"
         id="stop2" /></linearGradient><linearGradient
       id="linearGradient5"
       inkscape:collect="always"><stop
         style="stop-color:#cf3c23;stop-opacity:1;"
         offset="0.35390222"
         id="stop5" /><stop
         style="stop-color:#bfbfbf;stop-opacity:0.5;"
         offset="1"
         id="stop6" /></linearGradient><linearGradient
       inkscape:collect="always"
       xlink:href="#linearGradient2"
       id="linearGradient6"
       x1="-294.94406"
       y1="54.965656"
       x2="-294.95859"
       y2="65.785133"
       gradientUnits="userSpaceOnUse"
       gradientTransform="matrix(0.1835554,0,0,0.1835554,37.501091,-19.119058)" /><linearGradient
       inkscape:collect="always"
       xlink:href="#linearGradient5"
       id="linearGradient7"
       x1="-320.40573"
       y1="55.995174"
       x2="-320.32254"
       y2="65.866501"
       gradientUnits="userSpaceOnUse"
       gradientTransform="matrix(0.1835554,0,0,0.1835554,37.501091,-19.119058)" /></defs><g
     id="g2"
     transform="matrix(0.81356382,0,0,0.81356382,19.593859,11.737648)"><g
       id="g5"
       transform="matrix(1.0000022,0,0,1.0000022,0.11814466,3.1018993e-5)"><path
         d="m -16.569462,-6.4722957 c -1.61e-4,-0.2302009 -0.03304,-0.4592189 -0.09765,-0.680166 0.369838,-0.4537041 0.569782,-1.0033475 0.570403,-1.5680486 -6e-6,-0.5589086 -0.191773,-1.076871 -0.517958,-1.5034877 0.06923,-0.292375 0.129876,-0.600265 0.179794,-0.9127 0.263533,-1.671484 0.166497,-3.089058 -0.216726,-3.166084 -0.383168,-0.07686 -0.90732,1.215433 -1.170792,2.886571 -0.01327,0.08974 -0.02559,0.179454 -0.03693,0.268878 -0.349804,-0.1359 -0.734859,-0.211256 -1.139325,-0.211261 -0.419953,5e-6 -0.818696,0.08175 -1.179063,0.227659 -0.01195,-0.09485 -0.02501,-0.190058 -0.03915,-0.285276 -0.255273,-1.619153 -0.755242,-2.882636 -1.134597,-2.889821 -0.01223,-2.37e-4 -0.02436,8.63e-4 -0.03635,0.0032 -0.383115,0.07736 -0.480077,1.494847 -0.21658,3.166087 0.05175,0.327845 0.115371,0.651023 0.188363,0.956872 -0.305935,0.4179743 -0.484563,0.9196267 -0.484568,1.459316 8.63e-4,0.5677428 0.203185,1.1201112 0.576902,1.5749898 -0.06617,0.218397 -0.101232,0.4450395 -0.104153,0.6732251 -1e-6,0.2353353 0.03703,2.3186751 2.42919,2.330331 2.392162,0.011656 2.429186,-2.0911254 2.429186,-2.3303437 z"
         style="fill:#feedc1;fill-opacity:1;stroke:#000000;stroke-width:0.242766;stroke-linecap:round;stroke-linejoin:round;stroke-dasharray:none"
         id="path18"
         sodipodi:nodetypes="cccccccccccccccccczc" /><path
         style="fill:#b54f3e;fill-opacity:1;stroke:none;stroke-width:0.367111;stroke-linecap:square;paint-order:markers stroke fill"
         d="m -18.99865,-6.2962971 c 0,0 -0.246225,0.4950941 -0.445544,0.5408765 -0.199316,0.045783 -0.499715,0.065205 -0.499715,0.065205 0,0 0.181055,0.4347062 0.494747,0.5014015 0.313692,0.066696 0.83283,0.076089 0.944118,0.00794 0.111289,-0.068155 0.377452,-0.2424499 0.398904,-0.3046886 0.02145,-0.062238 0.04295,-0.1949812 0.04295,-0.1949812 0,0 -0.684374,-0.138299 -0.935463,-0.5846814"
         id="path1" /><path
         id="path16"
         style="fill:none;stroke:#000000;stroke-width:0.242829;stroke-linecap:square;stroke-linejoin:round;stroke-dasharray:none"
         d="m -18.996219,-6.8109895 c 0.02698,0.5830258 0.141834,0.798482 0.4013,0.9888251 0.259467,0.1903403 0.676527,0.089235 0.838611,0 0.162084,-0.089235 0.419304,-0.2809543 0.419304,-0.6046302 m -1.664077,-0.3841949 c -0.02698,0.5830258 -0.141832,0.798482 -0.401298,0.9888251 -0.259469,0.1903403 -0.676528,0.089235 -0.838612,0 -0.162084,-0.089235 -0.419304,-0.2809543 -0.419304,-0.6046302" /><path
         style="fill:none;fill-opacity:1;stroke:#000000;stroke-width:0.242829;stroke-linecap:round;stroke-linejoin:round;stroke-dasharray:none;stroke-opacity:1"
         id="path17"
         d="m -18.032823,-5.6817733 a 0.96582699,0.55107941 0 0 1 -0.482914,0.4772499 0.96582699,0.55107941 0 0 1 -0.965829,0 0.96582699,0.55107941 0 0 1 -0.482912,-0.4772499" /><rect
         style="fill:#000000;fill-opacity:1;stroke:#000000;stroke-width:0.168209;stroke-linecap:square;stroke-linejoin:round;stroke-dasharray:none"
         id="rect22"
         width="0.69955647"
         height="1.3582429"
         x="-22.219936"
         y="-7.6272726"
         rx="0.22561899"
         ry="0.22561899" /><path
         d="m -19.33588,-12.701033 c -1.234224,-0.04167 -1.619245,0.861664 -2.380805,1.32851 -0.937794,0.17332 -0.882225,1.8986121 -0.744164,3.0186168 0.02261,-0.5679796 0.406725,-1.0151055 0.874229,-1.0176532 0.163273,3.51e-5 0.323316,0.055372 0.462192,0.1598112 -0.01164,-0.09838 -0.06312,-0.197124 -0.153347,-0.3640336 -0.210616,-0.3896611 0.0055,-0.3318273 0.134805,-0.6881132 0.125742,-0.346413 0.899263,-0.04398 1.822756,0.129058 1.46e-4,4.7e-5 3.66e-4,9.9e-5 5.28e-4,1.47e-4 0.02615,0.0049 0.05106,0.01055 0.07746,0.01524 0.110391,0.01955 0.2096,0.02984 0.3008,0.0332 0.08711,-0.0034 0.181859,-0.01366 0.287287,-0.0332 0.04815,-0.0089 0.09396,-0.01961 0.141275,-0.02932 0.85206,-0.174611 1.557252,-0.452662 1.674293,-0.115117 0.123531,0.3562841 0.329962,0.2984499 0.12877,0.6881134 -0.08618,0.1669104 -0.135207,0.2656535 -0.146303,0.3640316 0.132616,-0.1044009 0.285438,-0.1597402 0.441351,-0.1598112 0.446649,0.0023 0.81367,0.4495873 0.83528,1.0176532 0.131883,-1.120007 0.184866,-2.845297 -0.710967,-3.018613 -0.775015,-0.371603 -1.086217,-1.328514 -2.274306,-1.328514 -0.25706,0 -0.514117,3e-6 -0.771176,0 z"
         style="stroke:#000000;stroke-width:0.0794696;stroke-linecap:square;stroke-linejoin:round"
         id="path27" /><g
         id="g19"
         transform="matrix(0.28588254,0,0,0.28588254,-64.376311,-24.734569)"><ellipse
           style="fill:#cf3c23;fill-opacity:1;stroke:none;stroke-width:0.472496;stroke-linecap:round;stroke-linejoin:round;stroke-dasharray:none"
           id="ellipse11-0"
           cx="150.20351"
           cy="58.517475"
           rx="3.2734523"
           ry="3.235615" /><ellipse
           style="fill:#000000;fill-opacity:1;stroke:none;stroke-width:0.339659;stroke-linecap:round;stroke-linejoin:round;stroke-dasharray:none"
           id="ellipse12-2"
           cx="150.20351"
           cy="58.517475"
           rx="2.3531568"
           ry="2.3259571" /><path
           style="fill:#e2c16d;fill-opacity:1;stroke:#000000;stroke-width:0.8494;stroke-linecap:round;stroke-linejoin:round;stroke-dasharray:none"
           id="path19"
           d="m 146.43601,57.480972 a 3.7675014,3.8452704 0 0 1 3.7675,-3.84527 3.7675014,3.8452704 0 0 1 3.7675,3.84527 h -3.7675 z" /><ellipse
           style="fill:#ffffff;fill-opacity:1;stroke:none;stroke-width:0.145551;stroke-linecap:round;stroke-linejoin:round;stroke-dasharray:none"
           id="ellipse13-3"
           cx="148.64229"
           cy="58.536304"
           rx="1.0083772"
           ry="0.99672139" /></g><rect
         style="fill:#000000;fill-opacity:1;stroke:#000000;stroke-width:0.168209;stroke-linecap:square;stroke-linejoin:round;stroke-dasharray:none"
         id="rect21"
         width="0.69955647"
         height="1.3582429"
         x="-16.471308"
         y="-7.6272726"
         rx="0.22561899"
         ry="0.22561899" /><path
         style="fill:#e2c16d;fill-opacity:1;stroke:#000000;stroke-width:0.242829;stroke-linecap:round;stroke-linejoin:round;stroke-dasharray:none"
         id="path20"
         d="m -17.752551,-8.2401884 a 1.0770628,1.0992957 0 0 1 1.077063,-1.0992952 1.0770628,1.0992957 0 0 1 1.077061,1.0992952 h -1.077061 z" /><path
         style="fill:#000000;fill-opacity:1;stroke:#4c4c4c;stroke-width:0.242829;stroke-linecap:square;stroke-linejoin:round;stroke-dasharray:none"
         d="m -19.052268,-11.851731 c 0,0 0.320631,0.581323 0.0048,1.128288"
         id="path29" /><path
         style="fill:#000000;fill-opacity:1;stroke:#4c4c4c;stroke-width:0.242829;stroke-linecap:square;stroke-linejoin:round;stroke-dasharray:none"
         d="m -18.204809,-11.429997 c 0,0 0.126074,0.268104 0.0075,0.418413"
         id="path30" /><path
         style="fill:#000000;fill-opacity:1;stroke:#4c4c4c;stroke-width:0.242829;stroke-linecap:square;stroke-linejoin:round;stroke-dasharray:none"
         d="m -19.829386,-11.429997 c 0,0 0.126075,0.268104 0.0075,0.418413"
         id="path31" /><path
         d="m -20.919009,-9.4189317 c -0.13554,0.00288 -0.273694,0.026372 -0.417456,0.044487 -0.178374,0.022473 -0.462447,0.1150406 -0.638942,0.1607794 -0.162088,0.042002 -0.852426,0.2357921 -0.997589,0.3538081 -0.124947,0.1015793 0.02594,0.5641395 0.05521,0.621015 0.08969,0.085368 0.279254,-0.090001 0.279254,0.077497 0,0.6699902 0.582937,1.2131943 1.302073,1.2131943 0.719132,-8e-7 1.302167,-0.5432046 1.302167,-1.2131943 0,-0.1865081 0.634101,-0.3447313 1.03565,-0.345936 0.383253,8.153e-4 1.029715,0.1590169 1.03574,0.345936 0.02158,0.6696458 0.582937,1.2131935 1.302071,1.2131943 0.719142,0 1.302169,-0.5431993 1.302169,-1.2131943 0,-0.1674984 0.189472,0.00788 0.279158,-0.077497 0.02927,-0.056876 0.180153,-0.5194352 0.05521,-0.621015 -0.145165,-0.1180165 -0.835407,-0.3118044 -0.997493,-0.3538081 -0.176498,-0.045739 -0.460662,-0.1383047 -0.63904,-0.1607794 -0.383368,-0.048304 -0.726656,-0.1346881 -1.087605,0.2325841 -0.134355,0.1367149 -0.183916,0.3396572 -0.202705,0.5519603 -0.156908,-0.2184294 -0.575888,-0.3650699 -1.047482,-0.3666137 -0.471545,0.00153 -0.890508,0.1481267 -1.047483,0.3665192 -0.01879,-0.212269 -0.06846,-0.415171 -0.202799,-0.5518658 -0.22559,-0.2295439 -0.44425,-0.2818859 -0.67015,-0.2770712 z"
         style="fill:#000000;fill-opacity:1;stroke:#feedc1;stroke-width:0.367111;stroke-linecap:square;stroke-dasharray:none;stroke-opacity:1;paint-order:markers stroke fill"
         id="path11"
         sodipodi:nodetypes="cssscssscssscsssscccccc" /><path
         id="path12"
         style="fill:url(#linearGradient6);fill-opacity:1;stroke-width:0.367111;stroke-linecap:square;stroke-dasharray:none"
         d="m -15.641755,-8.0078608 c -0.03388,0.4008442 -0.457064,0.8217422 -1.009639,0.8217422 -0.552575,0 -1.066934,-0.4104006 -1.066934,-0.8613436 0,-0.2266454 0.03258,-0.6610775 0.241098,-0.8669827 0.208521,-0.2059054 0.818541,-0.1668655 1.324841,0.01656 0.506299,0.1834268 0.544509,0.4891796 0.510634,0.8900241 z"
         sodipodi:nodetypes="zsszzzz" /><path
         id="path13"
         style="fill:url(#linearGradient7);fill-opacity:1;stroke-width:0.367111;stroke-linecap:square;stroke-dasharray:none"
         d="m -22.371533,-8.0078608 c 0.03388,0.4008442 0.457064,0.8217422 1.009639,0.8217422 0.552575,0 1.066934,-0.4104006 1.066934,-0.8613436 0,-0.2266454 -0.03258,-0.6610775 -0.241098,-0.8669827 -0.208521,-0.2059054 -0.818541,-0.1668655 -1.32484,0.01656 -0.5063,0.1834268 -0.544509,0.4891796 -0.510635,0.8900241 z"
         sodipodi:nodetypes="zsszzzz" /><path
         id="path14"
         style="fill:none;fill-opacity:1;stroke:#000000;stroke-width:0.242829;stroke-linecap:square;stroke-linejoin:round;stroke-dasharray:none;stroke-opacity:1"
         d="m -20.151678,-7.2441499 h 0.468189 m 1.369682,0 h 0.468189 m -0.468767,0.0023 c 0,0.1035125 -0.155498,0.2012873 -0.363129,0.2530438 -0.20763,0.051759 -0.463446,0.051759 -0.671078,0 -0.20763,-0.051757 -0.335538,-0.1474071 -0.335538,-0.2509226" /></g></g></svg>
