<?xml version="1.0" encoding="UTF-8" standalone="no"?>
<!-- Created with Inkscape (http://www.inkscape.org/) -->

<svg
   width="236.43929mm"
   height="82.411995mm"
   viewBox="0 0 236.43929 82.411995"
   version="1.1"
   id="svg2674"
   inkscape:version="1.3.2 (091e20ef0f, 2023-11-25)"
   sodipodi:docname="ramalama-logo-full-horiz.svg"
   inkscape:export-filename="/home/duffy/Downloads/Podman Branding/Badge Style Logo/podman-badge-full-vert.png"
   inkscape:export-xdpi="89.962868"
   inkscape:export-ydpi="89.962868"
   xmlns:inkscape="http://www.inkscape.org/namespaces/inkscape"
   xmlns:sodipodi="http://sodipodi.sourceforge.net/DTD/sodipodi-0.dtd"
   xmlns:xlink="http://www.w3.org/1999/xlink"
   xmlns="http://www.w3.org/2000/svg"
   xmlns:svg="http://www.w3.org/2000/svg"
   xmlns:rdf="http://www.w3.org/1999/02/22-rdf-syntax-ns#"
   xmlns:cc="http://creativecommons.org/ns#"
   xmlns:dc="http://purl.org/dc/elements/1.1/">
  <defs
     id="defs2668">
    <inkscape:path-effect
       is_visible="true"
       id="path-effect10334"
       effect="spiro"
       lpeversion="0" />
    <inkscape:path-effect
       effect="spiro"
       id="path-effect10336"
       is_visible="true"
       lpeversion="0" />
    <inkscape:path-effect
       is_visible="true"
       id="path-effect9986"
       effect="spiro"
       lpeversion="0" />
    <inkscape:path-effect
       effect="spiro"
       id="path-effect9984"
       is_visible="true"
       lpeversion="0" />
    <inkscape:path-effect
       effect="spiro"
       id="path-effect10300"
       is_visible="true"
       lpeversion="0" />
    <inkscape:path-effect
       is_visible="true"
       id="path-effect10304"
       effect="spiro"
       lpeversion="0" />
    <linearGradient
       inkscape:collect="always"
       xlink:href="#linearGradient2"
       id="linearGradient6"
       x1="-294.94406"
       y1="54.965656"
       x2="-294.95859"
       y2="65.785133"
       gradientUnits="userSpaceOnUse"
       gradientTransform="translate(412.80758,2.7018291)" />
    <linearGradient
       id="linearGradient2"
       inkscape:collect="always">
      <stop
         style="stop-color:#cf3c23;stop-opacity:1;"
         offset="0.34546715"
         id="stop1" />
      <stop
         style="stop-color:#bfbfbf;stop-opacity:0.50216103;"
         offset="1"
         id="stop2" />
    </linearGradient>
    <linearGradient
       inkscape:collect="always"
       xlink:href="#linearGradient5"
       id="linearGradient7"
       x1="-320.40573"
       y1="55.995174"
       x2="-320.32254"
       y2="65.866501"
       gradientUnits="userSpaceOnUse"
       gradientTransform="translate(412.80758,2.7018291)" />
    <linearGradient
       id="linearGradient5"
       inkscape:collect="always">
      <stop
         style="stop-color:#cf3c23;stop-opacity:1;"
         offset="0.35390222"
         id="stop5" />
      <stop
         style="stop-color:#bfbfbf;stop-opacity:0.5;"
         offset="1"
         id="stop6" />
    </linearGradient>
  </defs>
  <sodipodi:namedview
     id="base"
     pagecolor="#ffffff"
     bordercolor="#666666"
     borderopacity="1.0"
     inkscape:pageopacity="0.0"
     inkscape:pageshadow="2"
     inkscape:zoom="0.7"
     inkscape:cx="307.85714"
     inkscape:cy="194.28571"
     inkscape:document-units="mm"
     inkscape:current-layer="g3222"
     showgrid="false"
     fit-margin-top="10"
     fit-margin-left="10"
     fit-margin-right="10"
     fit-margin-bottom="10"
     inkscape:window-width="1920"
     inkscape:window-height="1163"
     inkscape:window-x="0"
     inkscape:window-y="0"
     inkscape:window-maximized="1"
     inkscape:pagecheckerboard="0"
     inkscape:showpageshadow="2"
     inkscape:deskcolor="#d1d1d1"
     showguides="false">
    <sodipodi:guide
       position="46.869048,72.64823"
       orientation="0,-1"
       id="guide1"
       inkscape:locked="false" />
    <sodipodi:guide
       position="61.013945,9.9999966"
       orientation="0,-1"
       id="guide2"
       inkscape:locked="false" />
    <sodipodi:guide
       position="9.8273811,20.660136"
       orientation="1,0"
       id="guide4"
       inkscape:locked="false" />
    <sodipodi:guide
       position="226.47049,27.172843"
       orientation="1,0"
       id="guide5"
       inkscape:locked="false" />
    <sodipodi:guide
       position="236.42411,36.535136"
       orientation="1,0"
       id="guide6"
       inkscape:locked="false" />
    <inkscape:page
       x="0"
       y="0"
       width="236.43929"
       height="82.411995"
       id="page6"
       margin="0 13.233594 0 0"
       bleed="0" />
  </sodipodi:namedview>
  <metadata
     id="metadata2671">
    <rdf:RDF>
      <cc:Work
         rdf:about="">
        <dc:format>image/svg+xml</dc:format>
        <dc:type
           rdf:resource="http://purl.org/dc/dcmitype/StillImage" />
      </cc:Work>
    </rdf:RDF>
  </metadata>
  <g
     inkscape:label="Layer 1"
     inkscape:groupmode="layer"
     id="layer1"
     transform="translate(517.33021,-6.6586254)">
    <g
       id="g1208">
      <g
         id="g2422">
        <g
           id="g3222">
          <g
             id="g6"
             transform="translate(0.11490045,2.1107321)">
            <g
               id="g1"
               transform="translate(45.843474,48.902117)">
              <text
                 xml:space="preserve"
                 style="font-style:normal;font-weight:normal;font-size:37.9182px;line-height:1.25;font-family:sans-serif;fill:#cf3c23;fill-opacity:1;stroke:none;stroke-width:0.947956"
                 x="-503.4278"
                 y="8.8882151"
                 id="text1"
                 inkscape:export-filename="ramalama-logo-full-vertical2.png"
                 inkscape:export-xdpi="96"
                 inkscape:export-ydpi="96"><tspan
                   id="tspan1"
                   style="font-style:normal;font-variant:normal;font-weight:500;font-stretch:normal;font-family:'Red Hat Display';-inkscape-font-specification:'Red Hat Display Medium';fill:#cf3c23;fill-opacity:1;stroke-width:0.947956"
                   x="-503.4278"
                   y="8.8882151">rama<tspan
   style="fill:#cf3c23;fill-opacity:1"
   id="tspan3" /></tspan></text>
              <text
                 xml:space="preserve"
                 style="font-style:normal;font-weight:normal;font-size:37.9182px;line-height:1.25;font-family:sans-serif;fill:#000000;fill-opacity:1;stroke:none;stroke-width:0.947956"
                 x="-416.56378"
                 y="8.8882151"
                 id="text5"><tspan
                   id="tspan5"
                   style="font-style:normal;font-variant:normal;font-weight:500;font-stretch:normal;font-family:'Red Hat Display';-inkscape-font-specification:'Red Hat Display Medium';fill:#000000;fill-opacity:1;stroke-width:0.947956"
                   x="-416.56378"
                   y="8.8882151">lama</tspan></text>
            </g>
            <g
               id="g2"
               transform="matrix(0.66269756,0,0,0.66269756,-556.32977,-8.22108)">
              <path
                 d="m 92.182031,28.922936 c -0.06666,-0.0013 -0.132697,0.0047 -0.198002,0.01776 -2.087184,0.421453 -2.615432,8.143838 -1.17991,17.248668 0.281949,1.786079 0.628534,3.546739 1.026188,5.212986 -1.666714,2.277103 -2.63987,5.010078 -2.639901,7.950275 0.0047,3.093032 1.106943,6.102302 3.142933,8.58046 -0.360477,1.189815 -0.551501,2.424549 -0.567418,3.667692 -1.6e-5,3.731907 1.550542,7.096967 4.035489,9.502811 0,0 -0.529167,1.644714 -0.529167,2.494822 0,0.850108 0.529167,2.494822 0.529167,2.494822 0,0 -0.529167,1.644714 -0.529167,2.494822 0,0.850108 0.529167,2.494822 0.529167,2.494822 0,0 -0.529167,1.644714 -0.529167,2.494822 0,0.850108 0.529167,2.494822 0.529167,2.494822 0,0 -0.529167,1.644715 -0.529167,2.494822 0,0.850107 0.529167,2.494818 0.529167,2.494818 0,0 -0.529167,1.64472 -0.529167,2.49483 10e-7,0.85011 0.529167,2.49482 0.529167,2.49482 v 2.49482 2.49482 2.49482 2.49483 2.49482 2.49482 c 0,2.51743 2.02674,4.54417 4.54418,4.54417 h 9.30884 c 2.51744,0 4.54416,-2.02674 4.54416,-4.54417 v -2.49483 -2.49482 -2.49483 -2.49482 -2.49483 -2.49482 c 0,0 0.52917,-1.64472 0.52917,-2.49483 0,-0.85011 -0.52917,-2.49482 -0.52917,-2.49482 0,0 0.52917,-1.644718 0.52917,-2.494827 0,-0.850109 -0.52917,-2.494825 -0.52917,-2.494825 0,0 0.52917,-1.644717 0.52917,-2.494826 0,-0.850109 -0.52917,-2.494825 -0.52917,-2.494825 0,0 0.52917,-1.644716 0.52917,-2.494825 0,-0.850109 -0.52917,-2.494825 -0.52917,-2.494825 0,0 0.52917,-1.644717 0.52917,-2.494826 0,-0.850109 -0.52917,-2.494825 -0.52917,-2.494825 2.48496,-2.405844 4.0355,-5.770919 4.0355,-9.502826 -8.5e-4,-1.254124 -0.17998,-2.5018 -0.532,-3.705508 2.01486,-2.471756 3.10414,-5.466184 3.10752,-8.542644 -3e-5,-3.044906 -1.04477,-5.866735 -2.8218,-8.190921 0.37713,-1.592843 0.70755,-3.27021 0.9795,-4.97234 1.43572,-9.106154 0.90707,-16.829022 -1.18071,-17.248652 -2.08748,-0.418727 -4.94303,6.621611 -6.37841,15.725879 -0.0723,0.488907 -0.13939,0.977657 -0.20121,1.464835 -1.90571,-0.740376 -4.00347,-1.15091 -6.20698,-1.150941 -2.28788,3.1e-5 -4.46021,0.445374 -6.423469,1.240277 -0.0651,-0.516769 -0.136279,-1.035423 -0.21328,-1.554171 -1.390715,-8.821058 -4.114516,-15.704448 -6.18122,-15.743588 z"
                 style="fill:#feedc1;fill-opacity:1;stroke:#000000;stroke-width:1.32292;stroke-linecap:round;stroke-linejoin:round;stroke-dasharray:none"
                 id="path18"
                 sodipodi:nodetypes="cccccccczczczczczccccccsssscccccczczczczczccccccccccccc" />
              <path
                 id="path9"
                 style="fill:#4c4c4c;stroke-width:0.504377;stroke-linecap:square;stroke-linejoin:round"
                 d="m 130.94058,117.46551 -53.815977,1.738 -2.456018,2.09776 c 0,0 13.541109,11.12284 30.678185,11.31086 17.13708,0.18804 30.18865,-11.37167 30.18865,-11.37167 z" />
              <path
                 d="m 135.40067,121.39576 -19.13282,-16.68013 1.46402,2.79127 -11.51011,10.00443 -11.073881,-9.65144 0.530398,-4.27378 -21.078929,17.7001"
                 style="fill:#4c4c4c;fill-opacity:1;stroke:#000000;stroke-width:1.32292;stroke-linecap:square;stroke-linejoin:miter;stroke-dasharray:none;stroke-opacity:1"
                 id="path8" />
              <path
                 d="m 95.673149,101.4792 -0.223947,2.04167 1.153825,23.56591 9.330523,1.19741 8.56236,-2.05782 0.0549,-24.67512 c 0,0 -0.73305,0.89401 -1.15922,1.29689 -2.12285,2.08807 -4.80983,3.31452 -8.30219,3.27748 -3.62026,0.0152 -5.881517,-0.95256 -8.273357,-3.25243 -0.392181,-0.38159 -0.821931,-0.96288 -1.142934,-1.39399 z"
                 style="fill:#ffffff;stroke:#000000;stroke-width:1.30555;stroke-linecap:round;stroke-linejoin:round;stroke-dasharray:none"
                 id="path7"
                 sodipodi:nodetypes="cccccccccc" />
              <path
                 style="fill:#b54f3e;fill-opacity:1;stroke:none;stroke-width:2;stroke-linecap:square;paint-order:markers stroke fill"
                 d="m 105.00001,72.559541 c 0,0 -1.34143,2.697245 -2.4273,2.946668 -1.08587,0.249425 -2.722425,0.355229 -2.722425,0.355229 0,0 0.986375,2.368259 2.695355,2.731609 1.70898,0.363352 4.53721,0.414533 5.1435,0.04323 0.6063,-0.371306 2.05634,-1.320856 2.17321,-1.65993 0.11688,-0.339071 0.23401,-1.062246 0.23401,-1.062246 0,0 -3.72843,-0.753446 -5.09635,-3.185309"
                 id="path1" />
              <path
                 id="path16"
                 style="fill:none;stroke:#000000;stroke-width:1.32292;stroke-linecap:square;stroke-linejoin:round;stroke-dasharray:none"
                 d="m 105.01325,69.755525 c 0.14703,3.176294 0.7727,4.350084 2.18626,5.387065 1.41356,1.036965 3.68568,0.486149 4.56871,0 0.88302,-0.48615 2.28434,-1.530622 2.28434,-3.293993 m -9.0658,-2.093072 c -0.14702,3.176294 -0.77269,4.350084 -2.18625,5.387065 -1.41357,1.036965 -3.685685,0.486149 -4.56871,0 -0.883025,-0.48615 -2.284345,-1.530622 -2.284345,-3.293993" />
              <path
                 style="fill:none;fill-opacity:1;stroke:#000000;stroke-width:1.32292;stroke-linecap:round;stroke-linejoin:round;stroke-dasharray:none;stroke-opacity:1"
                 id="path17"
                 d="m 110.26178,75.907433 a 5.2617737,3.0022512 0 0 1 -2.63089,2.60003 5.2617737,3.0022512 0 0 1 -5.26178,0 5.2617737,3.0022512 0 0 1 -2.630884,-2.60003" />
              <path
                 style="fill:#1f3156;fill-opacity:1;stroke:#000000;stroke-width:1.32292;stroke-linecap:round;stroke-linejoin:round;stroke-dasharray:1.32292, 2.64583;stroke-dashoffset:0;stroke-opacity:1"
                 d="m 93.323451,120.85511 2.396888,6.23167"
                 id="path24" />
              <rect
                 style="fill:#000000;fill-opacity:1;stroke:#000000;stroke-width:0.91639;stroke-linecap:square;stroke-linejoin:round;stroke-dasharray:none"
                 id="rect22"
                 width="3.811146"
                 height="7.3996334"
                 x="87.450607"
                 y="65.308456"
                 rx="1.5089842"
                 ry="1.5089842" />
              <path
                 d="m 103.16279,37.666884 c -6.723984,-0.226971 -8.821557,4.694301 -12.970493,7.237653 -5.109055,0.944234 -4.806314,10.343535 -4.054164,16.445261 0.123196,-3.094324 2.215817,-5.530243 4.762752,-5.54412 0.889504,1.87e-4 1.761408,0.301667 2.517997,0.870643 -0.06339,-0.535973 -0.343921,-1.073924 -0.835428,-1.983239 -1.147421,-2.122851 0.02975,-1.807774 0.73441,-3.748806 0.685039,-1.887236 4.89914,-0.239601 9.930276,0.703106 7.8e-4,2.8e-4 0.002,4.98e-4 0.003,7.79e-4 0.14251,0.02663 0.27818,0.05747 0.422,0.08301 0.6014,0.106531 1.14188,0.162553 1.63874,0.180869 0.47455,-0.01838 0.99076,-0.07445 1.56512,-0.180869 0.26234,-0.04859 0.51191,-0.106843 0.76966,-0.159719 4.64198,-0.951273 8.48383,-2.466071 9.12146,-0.627147 0.67299,1.941015 1.79761,1.625939 0.70153,3.748805 -0.46951,0.909315 -0.7366,1.447266 -0.79705,1.983224 0.72248,-0.568774 1.55505,-0.870254 2.40446,-0.870643 2.43332,0.01246 4.43283,2.449328 4.55056,5.54412 0.71849,-6.101742 1.00714,-15.501028 -3.87331,-16.445245 -4.22224,-2.024466 -5.91766,-7.237669 -12.3903,-7.237669 -1.40045,0 -2.80088,1.5e-5 -4.20133,0 z"
                 style="stroke:#000000;stroke-width:0.432946;stroke-linecap:square;stroke-linejoin:round"
                 id="path27" />
              <g
                 id="g19"
                 transform="matrix(1.5574727,0,0,1.5574727,-142.21504,-27.891176)">
                <ellipse
                   style="fill:#cf3c23;fill-opacity:1;stroke:none;stroke-width:0.472496;stroke-linecap:round;stroke-linejoin:round;stroke-dasharray:none"
                   id="ellipse11-0"
                   cx="150.20351"
                   cy="58.517475"
                   rx="3.2734523"
                   ry="3.235615" />
                <ellipse
                   style="fill:#000000;fill-opacity:1;stroke:none;stroke-width:0.339659;stroke-linecap:round;stroke-linejoin:round;stroke-dasharray:none"
                   id="ellipse12-2"
                   cx="150.20351"
                   cy="58.517475"
                   rx="2.3531568"
                   ry="2.3259571" />
                <path
                   style="fill:#e2c16d;fill-opacity:1;stroke:#000000;stroke-width:0.8494;stroke-linecap:round;stroke-linejoin:round;stroke-dasharray:none"
                   id="path19"
                   d="m 146.43601,57.480972 a 3.7675014,3.8452704 0 0 1 3.7675,-3.84527 3.7675014,3.8452704 0 0 1 3.7675,3.84527 h -3.7675 z" />
                <ellipse
                   style="fill:#ffffff;fill-opacity:1;stroke:none;stroke-width:0.145551;stroke-linecap:round;stroke-linejoin:round;stroke-dasharray:none"
                   id="ellipse13-3"
                   cx="148.64229"
                   cy="58.536304"
                   rx="1.0083772"
                   ry="0.99672139" />
              </g>
              <rect
                 style="fill:#000000;fill-opacity:1;stroke:#000000;stroke-width:0.91639;stroke-linecap:square;stroke-linejoin:round;stroke-dasharray:none"
                 id="rect21"
                 width="3.811146"
                 height="7.3996334"
                 x="118.76884"
                 y="65.308456"
                 rx="1.5089842"
                 ry="1.5089842" />
              <path
                 style="fill:#e2c16d;fill-opacity:1;stroke:#000000;stroke-width:1.32292;stroke-linecap:round;stroke-linejoin:round;stroke-dasharray:none"
                 id="path20"
                 d="m 111.78869,61.969326 a 5.8677806,5.9889037 0 0 1 5.86778,-5.988903 5.8677806,5.9889037 0 0 1 5.86777,5.988903 h -5.86777 z" />
              <path
                 style="fill:#000000;fill-opacity:1;stroke:#4c4c4c;stroke-width:1.32292;stroke-linecap:square;stroke-linejoin:round;stroke-dasharray:none"
                 d="m 104.7079,42.293839 c 0,0 1.74678,3.167012 0.0263,6.146847"
                 id="path29" />
              <path
                 style="fill:#000000;fill-opacity:1;stroke:#4c4c4c;stroke-width:1.32292;stroke-linecap:square;stroke-linejoin:round;stroke-dasharray:none"
                 d="m 109.32481,44.591423 c 0,0 0.68684,1.460614 0.0411,2.279486"
                 id="path30" />
              <path
                 style="fill:#000000;fill-opacity:1;stroke:#4c4c4c;stroke-width:1.32292;stroke-linecap:square;stroke-linejoin:round;stroke-dasharray:none"
                 d="m 100.4742,44.591423 c 0,0 0.68685,1.460614 0.0411,2.279486"
                 id="path31" />
              <path
                 d="m 99.038399,125.02486 0.238745,1.52029 0.982886,6.25939 a 12.852294,4.3909262 0 0 0 5.25446,0.40203 12.852294,4.3909262 0 0 0 4.65243,-0.30591 l 0.99787,-6.35551 0.2558,-1.62828 a 12.852294,4.3909262 0 0 0 -5.9061,-0.49247 12.852294,4.3909262 0 0 0 -6.476091,0.60046 z"
                 style="opacity:1;fill:#ffffff;stroke-width:1.67371;stroke-linecap:square"
                 id="path26" />
              <path
                 d="m 94.53799,55.547596 c -0.73841,0.01574 -1.49107,0.143678 -2.27428,0.242362 -0.97177,0.122442 -2.51938,0.626736 -3.48092,0.875916 -0.88304,0.228833 -4.64397,1.284587 -5.43481,1.927531 -0.6807,0.553397 0.14132,3.073399 0.30075,3.383256 0.48862,0.46508 1.52136,-0.490322 1.52136,0.422196 0,3.650072 3.17581,6.609417 7.09362,6.609416 3.9178,-5e-6 7.09414,-2.959349 7.09414,-6.609416 0,-1.016086 3.45455,-1.878074 5.64217,-1.884639 2.08794,0.0045 5.60983,0.866316 5.64265,1.884639 0.11758,3.648195 3.17581,6.609411 7.09362,6.609416 3.91784,10e-7 7.09414,-2.959322 7.09414,-6.609416 0,-0.912523 1.03223,0.04289 1.52084,-0.422196 0.15944,-0.309859 0.98146,-2.829856 0.30076,-3.383256 -0.79085,-0.642948 -4.55125,-1.698697 -5.43429,-1.927531 -0.96155,-0.249182 -2.50966,-0.753473 -3.48145,-0.875916 -2.08857,-0.263158 -3.95879,-0.733773 -5.92522,1.267106 -0.73196,0.744818 -1.00196,1.850433 -1.10432,3.007052 -0.85483,-1.189994 -3.13741,-1.988885 -5.70663,-1.997294 -2.56895,0.0083 -4.85144,0.806987 -5.70663,1.996777 -0.10239,-1.15643 -0.37299,-2.26183 -1.10484,-3.006535 -1.229,-1.250542 -2.42025,-1.535698 -3.65094,-1.509468 z"
                 style="fill:#000000;fill-opacity:1;stroke:#feedc1;stroke-width:2;stroke-linecap:square;stroke-dasharray:none;stroke-opacity:1;paint-order:markers stroke fill"
                 id="path11"
                 sodipodi:nodetypes="cssscssscssscsssscccccc" />
              <path
                 id="path12"
                 style="fill:url(#linearGradient6);fill-opacity:1;stroke-width:2;stroke-linecap:square;stroke-dasharray:none"
                 d="m 123.28819,63.235036 c -0.18455,2.183777 -2.49006,4.476805 -5.50046,4.476805 -3.0104,0 -5.8126,-2.235842 -5.8126,-4.692554 0,-1.234751 0.17748,-3.601511 1.31349,-4.723274 1.13601,-1.121763 4.45937,-0.909075 7.21766,0.09022 2.75829,0.999299 2.96646,2.665022 2.78191,4.848799 z"
                 sodipodi:nodetypes="zsszzzz" />
              <path
                 id="path13"
                 style="fill:url(#linearGradient7);fill-opacity:1;stroke-width:2;stroke-linecap:square;stroke-dasharray:none"
                 d="m 86.62472,63.235036 c 0.18455,2.183777 2.49006,4.476805 5.50046,4.476805 3.0104,0 5.8126,-2.235842 5.8126,-4.692554 0,-1.234751 -0.17748,-3.601511 -1.31349,-4.723274 -1.13601,-1.121763 -4.45937,-0.909075 -7.21766,0.09022 -2.75829,0.999299 -2.96646,2.665022 -2.78191,4.848799 z"
                 sodipodi:nodetypes="zsszzzz" />
              <path
                 id="path14"
                 style="fill:none;fill-opacity:1;stroke:#000000;stroke-width:1.32292;stroke-linecap:square;stroke-linejoin:round;stroke-dasharray:none;stroke-opacity:1"
                 d="m 98.71837,67.395689 h 2.55067 m 7.46195,0 h 2.55067 m -2.55382,0.01246 c 0,0.56393 -0.84714,1.096601 -1.9783,1.378566 -1.13116,0.28198 -2.52483,0.28198 -3.656,0 -1.13116,-0.281965 -1.82799,-0.803064 -1.82799,-1.36701" />
              <g
                 id="g26"
                 transform="translate(-0.02360198)">
                <g
                   id="g20"
                   transform="rotate(-24.316399,114.62897,100.27061)">
                  <path
                     id="path5"
                     style="fill:#4c4c4c;fill-opacity:1;stroke:#000000;stroke-width:1.32292;stroke-linecap:round;stroke-linejoin:round;stroke-dasharray:none"
                     d="m 108.77884,121.93278 8.39018,-4.57387 -3.60546,-6.29936 5.72317,0.32815 -5.1098,-10.15494 -6.23838,9.5038 -3.24628,4.9625 -4.08609,6.23372 -4.542358,6.93136 8.628418,-4.70358 z" />
                  <ellipse
                     style="fill:#000000;fill-opacity:1;stroke:none;stroke-width:1.32292;stroke-linecap:square;stroke-linejoin:round;stroke-dasharray:none;stroke-dashoffset:0;stroke-opacity:1"
                     id="path10"
                     cx="113.6947"
                     cy="116.68105"
                     rx="1.1516093"
                     ry="1.1658812" />
                </g>
                <g
                   id="g22"
                   transform="matrix(-0.91128546,-0.4117752,-0.4117752,0.91128546,241.69608,56.096826)">
                  <path
                     id="path21"
                     style="fill:#4c4c4c;fill-opacity:1;stroke:#000000;stroke-width:1.32292;stroke-linecap:round;stroke-linejoin:round;stroke-dasharray:none"
                     d="m 109.26106,122.15068 8.39018,-4.57387 -3.60546,-6.29936 5.72317,0.32815 -5.1098,-10.15494 -6.23838,9.5038 -3.24628,4.9625 -4.08609,6.23372 -4.542356,6.93136 8.628416,-4.70358 z" />
                  <ellipse
                     style="fill:#000000;fill-opacity:1;stroke:none;stroke-width:1.32292;stroke-linecap:square;stroke-linejoin:round;stroke-dasharray:none;stroke-dashoffset:0;stroke-opacity:1"
                     id="ellipse22"
                     cx="113.6947"
                     cy="116.68105"
                     rx="1.1516093"
                     ry="1.1658812" />
                </g>
              </g>
            </g>
          </g>
        </g>
      </g>
    </g>
  </g>
</svg>
